<svg width="10" height="10" viewBox="0 0 10 10" fill="none" xmlns="http://www.w3.org/2000/svg">
<g clip-path="url(#clip0_173_683)">
<path d="M5.47089 0.561975L5.47089 8.32098L8.36088 5.43098C8.54088 5.24998 8.83388 5.24998 9.01488 5.43098C9.19588 5.61098 9.19588 5.90398 9.01488 6.08498L5.35388 9.74598C5.35088 9.74897 5.34689 9.75098 5.34388 9.75398C5.25988 9.84298 5.14088 9.89998 5.00888 9.89998C4.97088 9.89998 4.93489 9.89398 4.89888 9.88597C4.81689 9.86697 4.73888 9.82697 4.67489 9.76298L0.985886 6.07398C0.803886 5.89198 0.803886 5.59697 0.985886 5.41498C1.16789 5.23298 1.46289 5.23298 1.64489 5.41498L4.54689 8.31698L4.54689 0.561975C4.54689 0.306975 4.75389 0.0999754 5.00889 0.0999754C5.26389 0.0999754 5.47089 0.306975 5.47089 0.561975Z" fill="white"/>
</g>
<defs>
<clipPath id="clip0_173_683">
<rect width="10" height="10" fill="white" transform="translate(10) rotate(90)"/>
</clipPath>
</defs>
</svg>
