<svg width="92" height="84" viewBox="0 0 92 84" fill="none" xmlns="http://www.w3.org/2000/svg">
<path d="M1.13276 8.11405L13.9498 12.0428L21.3178 30.3486C21.1558 30.5172 21.0268 30.7217 20.9498 30.9582L17.3488 41.9732C17.2318 42.3323 17.2448 42.7214 17.3888 43.0726L27.4138 67.6007C27.0388 68.7929 26.8358 70.0609 26.8358 71.3748C26.8358 78.3364 32.5128 84 39.4908 84C46.4688 84 52.1458 78.3364 52.1458 71.3748C52.1458 70.2615 51.9998 69.182 51.7268 68.1534L74.5857 58.4254C75.3987 58.0792 75.7768 57.1414 75.4298 56.3293C75.0828 55.5172 74.1428 55.1401 73.3288 55.4863L50.5188 65.1934C50.0518 64.3684 49.4977 63.5992 48.8637 62.9018L70.3218 54.0427C70.6018 53.927 70.8248 53.7045 70.9408 53.4252C71.0568 53.1458 71.0568 52.8316 70.9408 52.5522L59.8368 25.7844C59.5958 25.2017 58.9268 24.9254 58.3428 25.1658L56.0808 26.0996L48.2328 7.18125C48.1168 6.90191 47.8937 6.67943 47.6137 6.5637C47.3347 6.44798 47.0187 6.44798 46.7387 6.5637L26.3358 14.9878C26.0558 15.1036 25.8328 15.325 25.7168 15.6054C25.6008 15.8857 25.6008 16.199 25.7158 16.4783L33.5648 35.3967L30.9378 36.4811C30.3538 36.7216 30.0768 37.389 30.3178 37.9716L38.9428 58.7626C38.0548 58.8005 37.1898 58.9282 36.3578 59.1407L16.6358 10.1433C16.4548 9.69531 16.0818 9.35312 15.6198 9.21146L2.07075 5.05925C1.22575 4.79986 0.329772 5.27374 0.0697724 6.11775C-0.187228 6.96076 0.287761 7.85466 1.13276 8.11405ZM28.2698 16.6609L33.9178 14.3284L36.0988 19.585L43.0898 16.6978L40.9098 11.4412L46.5588 9.1087L53.9508 26.9277L35.6608 34.4789L28.2698 16.6609ZM39.4928 61.9441C39.7578 61.9441 40.0188 61.958 40.2788 61.979C41.2418 62.0588 42.1648 62.2823 43.0238 62.6295C43.1108 62.6644 43.1968 62.7003 43.2828 62.7372C44.1478 63.1163 44.9448 63.6221 45.6518 64.2297C46.3948 64.8682 47.0397 65.6184 47.5537 66.4564C48.1087 67.3573 48.5148 68.3589 48.7408 69.4254C48.8748 70.0539 48.9458 70.7064 48.9458 71.3748C48.9458 76.5746 44.7048 80.8056 39.4928 80.8056C34.2808 80.8056 30.0398 76.5756 30.0398 71.3748C30.0398 67.9649 31.8638 64.9719 34.5898 63.3148C35.4938 62.7651 36.4978 62.3631 37.5688 62.1406C38.1898 62.0129 38.8328 61.9441 39.4928 61.9441ZM32.8708 38.1542L40.8207 34.8709L43.9008 42.2934L53.2918 38.4156L50.2127 30.9941L58.1637 27.7118L68.3927 52.3707L46.9867 61.2088C45.3937 60.0366 43.5168 59.2285 41.4798 58.9062L32.8708 38.1542ZM29.3388 63.8466L25.6827 54.8997L30.1078 52.1831L33.3838 60.3219C31.7968 61.1978 30.4168 62.403 29.3388 63.8466ZM24.4558 51.9008L20.5758 42.4072L23.0837 34.7342L28.8968 49.1742L24.4558 51.9008Z" fill="#464E5A"/>
<path d="M39.4929 76.807C42.4999 76.807 44.9369 74.3747 44.9369 71.3748C44.9369 71.2651 44.9328 71.1573 44.9258 71.0486C44.8598 69.9242 44.4488 68.8917 43.7998 68.0546C42.8038 66.7707 41.2449 65.9426 39.4919 65.9426C39.3609 65.9426 39.2318 65.9496 39.1028 65.9586C37.9788 66.0374 36.9499 66.4574 36.1169 67.1139C34.8569 68.1085 34.0479 69.6469 34.0479 71.3748C34.0479 74.3747 36.4859 76.807 39.4929 76.807Z" fill="#464E5A"/>
<path d="M72.3532 3.93348H69.7507C68.7856 3.93348 68 4.71721 68 5.68044V31.3259C68 32.2896 68.7856 33.0729 69.7507 33.0729H90.2493C91.2148 33.0729 92 32.2896 92 31.3259V5.68044C92 4.71721 91.2148 3.93348 90.2493 3.93348H87.6468C87.5982 2.97299 86.8467 2.20648 85.9275 2.20648H84.2407C84.0212 0.954627 82.9247 0 81.608 0H78.775C77.4586 0 76.3618 0.954236 76.1423 2.20648H74.0725C73.1533 2.20648 72.4018 2.97299 72.3532 3.93348ZM87.5696 6.61004H88.8385V29.2595H71.1301V6.61004H72.4308C72.6535 7.34566 73.305 7.87948 74.0725 7.87948H85.9275C86.6954 7.87948 87.3469 7.34566 87.5696 6.61004ZM90.7448 5.68044V31.3259C90.7448 31.5985 90.5225 31.8207 90.2493 31.8207H69.7507C69.4775 31.8207 69.2552 31.5989 69.2552 31.3259V5.68044C69.2552 5.40825 69.4775 5.18612 69.7507 5.18612H72.3485V5.3574H70.5022C70.1556 5.3574 69.8746 5.63782 69.8746 5.98392V29.886C69.8746 30.2321 70.1556 30.5125 70.5022 30.5125H89.4661C89.8126 30.5125 90.0941 30.2321 90.0941 29.886V5.98392C90.0941 5.63782 89.813 5.3574 89.4661 5.3574H87.6515V5.18612H90.2493C90.5225 5.18651 90.7448 5.40825 90.7448 5.68044ZM73.6041 4.03125C73.6041 3.71565 73.8142 3.45871 74.0725 3.45871H76.7291C77.0757 3.45871 77.3571 3.1783 77.3571 2.8322V2.66716C77.3571 1.88696 77.9933 1.25224 78.7754 1.25224H81.6084C82.3904 1.25224 83.0267 1.88696 83.0267 2.66716V2.83142C83.0267 2.83181 83.0267 2.83181 83.0267 2.83181C83.0267 3.17831 83.3077 3.45871 83.6543 3.45871H85.9279C86.1862 3.45871 86.3967 3.71565 86.3967 4.03125V4.55843C86.3967 4.55882 86.3967 4.55961 86.3967 4.56C86.3967 4.56078 86.3967 4.56117 86.3967 4.56195V6.05471C86.3967 6.37031 86.1862 6.62725 85.9279 6.62725H74.0729C73.8146 6.62725 73.6045 6.37031 73.6045 6.05471V4.56V4.03125H73.6041Z" fill="#2A8960"/>
<path d="M79.8769 5.03342C80.8883 5.03342 81.7115 4.21253 81.7115 3.20355C81.7115 2.19456 80.8883 1.37329 79.8769 1.37329C78.8655 1.37329 78.0427 2.19456 78.0427 3.20355C78.0427 4.21253 78.8655 5.03342 79.8769 5.03342ZM79.8769 2.62632C80.196 2.62632 80.4559 2.88521 80.4559 3.20394C80.4559 3.52267 80.1964 3.78156 79.8769 3.78156C79.5578 3.78156 79.2979 3.52267 79.2979 3.20394C79.2979 2.88521 79.5578 2.62632 79.8769 2.62632Z" fill="#2A8960"/>
<path d="M72.1455 11.3179C72.1455 11.6636 72.4266 11.9444 72.7735 11.9444H86.9366C87.2835 11.9444 87.5646 11.6636 87.5646 11.3179C87.5646 10.9718 87.2835 10.6914 86.9366 10.6914H72.7735C72.4266 10.6918 72.1455 10.9718 72.1455 11.3179Z" fill="#2A8960"/>
<path d="M81.2631 15.0356H72.7735C72.4266 15.0356 72.1455 15.316 72.1455 15.6622C72.1455 16.0079 72.4266 16.2883 72.7735 16.2883H81.2631C81.6096 16.2883 81.8911 16.0079 81.8911 15.6622C81.8907 15.316 81.6096 15.0356 81.2631 15.0356Z" fill="#2A8960"/>
<path d="M81.2631 19.7981H72.7735C72.4266 19.7981 72.1455 20.0789 72.1455 20.4246C72.1455 20.7707 72.4266 21.0511 72.7735 21.0511H81.2631C81.6096 21.0511 81.8911 20.7707 81.8911 20.4246C81.8907 20.0789 81.6096 19.7981 81.2631 19.7981Z" fill="#2A8960"/>
<path d="M81.2631 24.5613H72.7735C72.4266 24.5613 72.1455 24.8417 72.1455 25.1874C72.1455 25.5335 72.4266 25.8139 72.7735 25.8139H81.2631C81.6096 25.8139 81.8911 25.5335 81.8911 25.1874C81.8907 24.8413 81.6096 24.5613 81.2631 24.5613Z" fill="#2A8960"/>
<path d="M85.9506 13.6382L84.3579 15.2987L83.9192 14.7046C83.7134 14.4262 83.3206 14.3667 83.0415 14.5721C82.7624 14.7766 82.7028 15.1689 82.9086 15.4473L83.7899 16.6409C83.9 16.7895 84.0702 16.8822 84.2552 16.8939C84.2689 16.8947 84.2822 16.8955 84.2956 16.8955C84.4661 16.8955 84.6303 16.8259 84.7491 16.7023L86.8577 14.504C87.0976 14.2541 87.089 13.858 86.8385 13.6186C86.5876 13.3801 86.1905 13.3883 85.9506 13.6382Z" fill="#2A8960"/>
<path d="M85.9506 18.6105L84.3579 20.2706L83.9192 19.6766C83.7134 19.3981 83.3206 19.3387 83.0415 19.544C82.7624 19.7489 82.7028 20.1412 82.9086 20.4192L83.7899 21.6128C83.9 21.7618 84.0702 21.8545 84.2552 21.8658C84.2689 21.867 84.2822 21.8674 84.2956 21.8674C84.4661 21.8674 84.6303 21.7978 84.7491 21.6742L86.8577 19.476C87.0976 19.2261 87.0886 18.8299 86.8385 18.5905C86.5884 18.3512 86.1905 18.3602 85.9506 18.6105Z" fill="#2A8960"/>
<path d="M85.9506 23.5822L84.3579 25.2424L83.9192 24.6487C83.7134 24.3698 83.3206 24.3108 83.0415 24.5157C82.7624 24.721 82.7028 25.1129 82.9086 25.3914L83.7899 26.5845C83.9 26.7335 84.0702 26.8262 84.2552 26.838C84.2689 26.8387 84.2822 26.8391 84.2956 26.8391C84.4661 26.8391 84.6303 26.7699 84.7491 26.6459L86.8577 24.4481C87.0976 24.1978 87.0886 23.802 86.8385 23.5623C86.5876 23.3237 86.1905 23.3323 85.9506 23.5822Z" fill="#2A8960"/>
</svg>
