<svg width="70" height="71" viewBox="0 0 70 71" fill="none" xmlns="http://www.w3.org/2000/svg">
<path d="M35.1158 48.0772C34.6768 47.3902 33.7928 47.1431 33.0608 47.5021C33.0198 47.5231 28.8928 49.5431 26.1598 50.6321C26.1288 50.6441 26.0968 50.6532 26.0658 50.6622C25.9968 50.6812 25.9238 50.6892 25.8448 50.6892C24.7108 50.6892 22.9588 48.9471 22.0698 47.7051L14.3048 30.5772C13.8978 28.8412 13.8158 26.2281 14.7158 25.6221C14.7418 25.6041 14.7708 25.5881 14.8008 25.5721C15.3078 25.3131 15.8758 25.0381 16.4628 24.7611C16.4708 24.7591 16.4788 24.7581 16.4858 24.7561C16.6508 24.7071 16.8018 24.6332 16.9368 24.5392C19.2488 23.4702 21.6688 22.4571 21.7018 22.4431C22.4538 22.1301 22.8498 21.3011 22.6228 20.5191L17.0048 1.15613C16.8758 0.710133 16.5588 0.34213 16.1368 0.14713C15.7148 -0.0478701 15.2298 -0.0488679 14.8068 0.143132L9.63481 2.48813C9.62681 2.49113 9.62081 2.49616 9.61381 2.50016C9.53681 2.53716 9.46081 2.57814 9.38981 2.62714C9.38481 2.63014 9.38081 2.63315 9.37681 2.63715C9.30181 2.69015 9.23081 2.74815 9.16481 2.81315L9.15883 2.81916L1.16682 10.7901C0.975821 10.9811 0.835809 11.2182 0.759809 11.4782C0.609809 11.9982 -2.83417 24.4361 6.29283 44.5721C16.2448 66.5271 27.2158 70.3951 27.6778 70.5501C27.8418 70.6041 28.0128 70.6321 28.1838 70.6321C28.2198 70.6321 28.2558 70.6311 28.2918 70.6281L39.5618 69.8701C39.7538 69.8571 39.9408 69.8092 40.1168 69.7302L40.2358 69.6762C40.4468 69.6412 40.6538 69.5661 40.8448 69.4421C40.8968 69.4081 40.9468 69.3711 40.9928 69.3331L45.2868 67.3872C45.7098 67.1952 46.0288 66.8281 46.1608 66.3831C46.2928 65.9381 46.2248 65.4572 45.9738 65.0662L35.1158 48.0772ZM14.4448 3.82514L19.1518 20.0491C18.5628 20.3031 17.8238 20.6251 17.0328 20.9791L12.2288 4.83014L14.4448 3.82514ZM28.4408 67.4072C27.7068 67.0852 25.4788 65.9692 22.5108 63.1862C16.3848 57.4432 11.8968 49.1742 9.20982 43.2482C4.71582 33.3342 3.49483 25.4611 3.26283 20.6021C3.06283 16.4111 3.54181 13.6831 3.74681 12.7391L9.5258 6.97513L14.0968 22.3421C13.8358 22.4701 13.5828 22.5962 13.3428 22.7192C13.1978 22.7922 13.0568 22.8751 12.9248 22.9641C11.9198 23.6421 10.7368 25.1222 10.8148 28.3312C10.8548 29.9951 11.2158 31.4341 11.2318 31.4931C11.2548 31.5851 11.2868 31.6751 11.3248 31.7611L19.2138 49.1632C19.2528 49.2491 19.2998 49.3311 19.3538 49.4091C19.6688 49.8671 22.5308 53.8901 25.8448 53.8901C26.1988 53.8901 26.5488 53.8452 26.8858 53.7562C27.0408 53.7142 27.1968 53.6631 27.3448 53.6041C27.6848 53.4681 28.0428 53.3212 28.4088 53.1652L37.2378 66.8131L28.4408 67.4072ZM40.5398 66.0211L31.3708 51.8481C32.0488 51.5351 32.6748 51.2412 33.1828 50.9982L42.2828 65.2302L40.5398 66.0211Z" fill="#394854"/>
<path d="M36.8609 15.9742C37.4329 15.1252 37.9099 14.3092 38.2899 13.5232C38.6699 12.7372 38.9529 11.9542 39.1409 11.1732C39.3289 10.3922 39.4219 9.56516 39.4219 8.69116C39.4219 6.76616 38.9039 5.26117 37.8679 4.17917C36.8329 3.09617 35.3929 2.55518 33.5519 2.55518C32.4589 2.55518 31.4439 2.78416 30.5069 3.24316C29.5699 3.70016 28.5559 4.54918 27.4629 5.78818L29.8359 8.28616C30.5229 7.52616 31.1059 7.00017 31.5839 6.70917C32.0629 6.41717 32.5779 6.27118 33.1299 6.27118C33.7549 6.27118 34.2619 6.49019 34.6519 6.92719C35.0429 7.36418 35.2369 8.02016 35.2369 8.89417C35.2369 9.64317 35.1379 10.3702 34.9409 11.0722C34.7429 11.7752 34.4359 12.5092 34.0189 13.2742C33.6029 14.0392 32.8379 15.2122 31.7239 16.7942L27.6639 22.5402V25.7092H39.9039V21.9312H32.4259V21.8062C34.8099 18.7662 36.2889 16.8232 36.8609 15.9742Z" fill="#2A8960"/>
<path d="M48.7889 2.88309L41.8889 17.4651V20.9151H49.3359V25.7081H53.3319V20.9151H55.6439V17.4021H53.3319V2.88208H48.7889V2.88309ZM49.4139 10.4711L49.3359 12.5941V17.4031H45.4639L48.2119 11.5171C48.6389 10.6011 49.0339 9.57607 49.3989 8.44107H49.5239L49.4139 10.4711Z" fill="#2A8960"/>
<path d="M32.4578 36.2102V28.4702H31.0178V31.5452H29.1178V28.4702H27.6768V36.2102H29.1178V32.8172H31.0178V36.2102H32.4578Z" fill="#2A8960"/>
<path d="M36.3809 28.3481C35.4779 28.3481 34.7859 28.6901 34.3059 29.3731C33.8269 30.0551 33.5859 31.0371 33.5859 32.3181C33.5859 33.6101 33.8259 34.5991 34.3059 35.2851C34.7859 35.9731 35.4749 36.3152 36.3709 36.3152C37.2639 36.3152 37.9499 35.9701 38.4299 35.2831C38.9099 34.5951 39.1509 33.6101 39.1509 32.3291C39.1509 31.0481 38.9129 30.0641 38.4359 29.3781C37.9589 28.6921 37.2739 28.3481 36.3809 28.3481ZM36.3709 35.0401C35.9399 35.0401 35.6129 34.8101 35.3919 34.3471C35.1689 33.8851 35.0579 33.2121 35.0579 32.3301C35.0579 31.4441 35.1689 30.7702 35.3919 30.3102C35.6139 29.8492 35.9439 29.6201 36.3809 29.6201C37.2419 29.6201 37.6729 30.5221 37.6729 32.3301C37.6729 34.1361 37.2389 35.0401 36.3709 35.0401Z" fill="#2A8960"/>
<path d="M40.2458 28.4702V33.4572C40.2458 34.3982 40.4469 35.1112 40.8499 35.5932C41.2529 36.0752 41.8379 36.3162 42.6069 36.3162C43.3939 36.3162 43.9968 36.0732 44.4128 35.5882C44.8298 35.1022 45.0378 34.3992 45.0378 33.4782V28.4702H43.6078V33.5942C43.6078 34.0572 43.5249 34.4132 43.3589 34.6642C43.1929 34.9142 42.9588 35.0392 42.6548 35.0392C42.0028 35.0392 41.6759 34.5472 41.6759 33.5622V28.4692H40.2458V28.4702Z" fill="#2A8960"/>
<path d="M51.0879 36.2102L49.6009 32.8172C50.2609 32.4282 50.5898 31.7462 50.5898 30.7682C50.5898 29.9922 50.4009 29.4142 50.0219 29.0372C49.6419 28.6592 49.0539 28.4712 48.2559 28.4712H46.3708V36.2102H47.8099V33.1982H48.3239L49.5469 36.2102H51.0879ZM48.9119 31.6702C48.7639 31.8622 48.5199 31.9592 48.1819 31.9592H47.8099V29.7142H48.1699C48.4979 29.7142 48.7409 29.7982 48.8979 29.9652C49.0549 30.1332 49.1339 30.4142 49.1339 30.8102C49.1339 31.1912 49.0599 31.4782 48.9119 31.6702Z" fill="#2A8960"/>
<path d="M53.0618 35.0611C52.5788 35.0611 52.0468 34.8731 51.4678 34.4951V35.9191C51.9418 36.1841 52.5148 36.3161 53.1888 36.3161C53.8768 36.3161 54.4038 36.1241 54.7688 35.7391C55.1338 35.3541 55.3168 34.8011 55.3168 34.0771C55.3168 33.6251 55.2168 33.2231 55.0178 32.8701C54.8188 32.5161 54.4658 32.1711 53.9618 31.8331C53.5878 31.5851 53.3248 31.3641 53.1748 31.1711C53.0258 30.9771 52.9498 30.7491 52.9498 30.4871C52.9498 30.2231 53.0128 30.0131 53.1378 29.8601C53.2628 29.7071 53.4418 29.6301 53.6748 29.6301C53.8868 29.6301 54.0848 29.6691 54.2708 29.7471C54.4558 29.8241 54.6328 29.9121 54.8018 30.0111L55.2788 28.8581C54.7318 28.5261 54.1628 28.3601 53.5688 28.3601C52.9478 28.3601 52.4528 28.5541 52.0848 28.9431C51.7158 29.3311 51.5308 29.8571 51.5308 30.5201C51.5308 30.8661 51.5778 31.1691 51.6718 31.4301C51.7658 31.6921 51.8978 31.9271 52.0678 32.1371C52.2398 32.3471 52.4908 32.5671 52.8228 32.7961C53.2038 33.0581 53.4768 33.2941 53.6428 33.5081C53.8088 33.7221 53.8918 33.9571 53.8918 34.2151C53.8918 34.4761 53.8228 34.6831 53.6828 34.8341C53.5428 34.9851 53.3378 35.0611 53.0618 35.0611Z" fill="#2A8960"/>
<path d="M69.4869 35.2172C69.4869 26.5262 65.5228 18.2832 58.8838 13.1682C58.1838 12.6292 57.1779 12.7592 56.6379 13.4592C56.0989 14.1602 56.2288 15.1662 56.9288 15.7052C62.7868 20.2192 66.2839 27.5122 66.2839 35.2172C66.2839 44.2112 61.6329 52.3421 54.2859 56.4791L57.0469 50.6242C57.4239 49.8242 57.0809 48.8701 56.2809 48.4921C55.4799 48.1152 54.5269 48.4581 54.1489 49.2581L49.6188 58.8682C49.4088 59.3142 49.4159 59.8332 49.6389 60.2722C49.8619 60.7122 50.2739 61.0262 50.7579 61.1222L61.8779 63.3181C61.9819 63.3391 62.0869 63.3482 62.1899 63.3482C62.9389 63.3482 63.6088 62.8202 63.7588 62.0572C63.9308 61.1902 63.3659 60.3472 62.4979 60.1762L56.3849 58.9682C64.4269 54.1822 69.4869 45.1572 69.4869 35.2172Z" fill="#394854"/>
</svg>
