<svg width="81" height="81" viewBox="0 0 81 81" fill="none" xmlns="http://www.w3.org/2000/svg">
<path d="M2.30263 80.2153H60.0287C60.0912 80.2153 60.1526 80.2129 60.2139 80.2058C60.2399 80.2035 60.2658 80.1988 60.2918 80.1952C60.3272 80.1905 60.3626 80.187 60.3956 80.1799C60.4251 80.174 60.4546 80.1657 60.4841 80.1575C60.5136 80.1504 60.5443 80.1433 60.5737 80.1339C60.6032 80.1256 60.6316 80.1138 60.661 80.1044C60.6894 80.0938 60.7189 80.0843 60.7472 80.0737C60.7743 80.0619 60.8014 80.0489 60.8274 80.0359C60.8557 80.023 60.8852 80.01 60.9135 79.9947C60.9383 79.9817 60.9642 79.9652 60.989 79.9498C61.0162 79.9333 61.0445 79.918 61.0704 79.9003C61.0964 79.8826 61.1223 79.8637 61.1471 79.8448C61.1707 79.8271 61.1955 79.8106 61.2179 79.7917C61.2462 79.7681 61.2733 79.7422 61.3017 79.7174C61.3182 79.7021 61.3347 79.6891 61.3512 79.6726L80.1764 61.1718C80.1787 61.1695 80.1799 61.1683 80.1823 61.1659C80.2141 61.1341 80.2425 61.1011 80.2719 61.068C80.2837 61.0539 80.2967 61.0421 80.3097 61.0267C80.3463 60.9831 80.3805 60.9371 80.4123 60.8911C80.4359 60.8568 80.4572 60.8191 80.4784 60.7837C80.4902 60.7625 80.5044 60.7436 80.515 60.7224C80.5315 60.6929 80.5445 60.661 80.5598 60.6303C80.5716 60.6056 80.5846 60.5808 80.5952 60.556C80.607 60.5289 80.6153 60.5006 80.6259 60.4722C80.6365 60.4416 80.6495 60.4121 80.6589 60.3814C80.6672 60.3555 80.6719 60.3283 80.679 60.3024C80.6872 60.2693 80.6978 60.2363 80.7037 60.2033C80.7155 60.1443 80.725 60.0829 80.7309 60.0228C80.732 60.0051 80.732 59.9886 80.7332 59.9709C80.7368 59.926 80.7403 59.88 80.7403 59.834C80.7403 59.8316 80.7403 59.8293 80.7403 59.8269V1.90147C80.7403 0.858574 79.8944 0.0126953 78.8504 0.0126953H21.1278C21.1066 0.0126953 21.0865 0.0150535 21.0665 0.0150535C21.0275 0.0162333 20.9874 0.0174143 20.9485 0.0209535C20.9202 0.023313 20.8919 0.02803 20.8636 0.032749C20.8317 0.0374679 20.7987 0.0410077 20.7656 0.0480862C20.735 0.0539849 20.7055 0.062245 20.6748 0.0693235C20.6453 0.0764019 20.6146 0.0834809 20.5863 0.0929189C20.5568 0.101177 20.5273 0.112972 20.499 0.12241C20.4695 0.133027 20.44 0.142466 20.4117 0.154263C20.3846 0.166061 20.3574 0.17904 20.3315 0.190838C20.302 0.204995 20.2725 0.217971 20.2442 0.233308C20.2182 0.246285 20.1935 0.26162 20.1687 0.276957C20.1415 0.293473 20.1132 0.30881 20.0861 0.326506C20.059 0.344202 20.0342 0.363079 20.0094 0.381955C19.9846 0.399651 19.961 0.41735 19.9375 0.435046C19.908 0.459821 19.8796 0.484594 19.8513 0.510549C19.836 0.524706 19.8195 0.537682 19.803 0.553019L0.978959 19.0538C0.977779 19.0561 0.975422 19.0573 0.974243 19.0597C0.942389 19.0915 0.912896 19.1246 0.884582 19.1576C0.872784 19.1717 0.858626 19.1835 0.846828 19.1989C0.810256 19.2425 0.776041 19.2885 0.744188 19.3357C0.720593 19.3699 0.699358 19.4065 0.678123 19.4419C0.666325 19.4631 0.65335 19.482 0.641553 19.5033C0.625036 19.5327 0.612057 19.5646 0.59672 19.5953C0.584923 19.6201 0.571947 19.6448 0.561329 19.6696C0.549532 19.6967 0.540093 19.725 0.530655 19.7534C0.518857 19.784 0.50706 19.8135 0.497622 19.8454C0.489364 19.8702 0.483468 19.8973 0.476389 19.9244C0.468131 19.9575 0.457514 19.9905 0.451615 20.0235C0.439817 20.0837 0.430376 20.1439 0.424478 20.204C0.423298 20.2217 0.423299 20.2382 0.422119 20.2559C0.41976 20.3008 0.41622 20.3468 0.41504 20.3928C0.41504 20.3951 0.41504 20.3975 0.41504 20.3999V78.3253C0.413861 79.3694 1.25974 80.2153 2.30263 80.2153ZM58.1399 76.4377H4.19258V22.291H22.1082V51.4519L27.0902 47.9941L30.9138 51.4519L34.6642 47.8502L40.5004 51.4519V22.291H58.1399V76.4377ZM61.9187 21.1773L76.9651 5.94209V59.0341L61.9187 73.8211V21.1773ZM59.2406 18.5123H42.7455L57.1796 3.79024H73.7798L59.2406 18.5123ZM21.9017 3.79024H38.6364L23.6902 18.5123H6.92015L21.9017 3.79024Z" fill="#464E5A"/>
<path d="M26.3516 61.1833H6.47999C6.10719 61.1833 5.80518 61.4854 5.80518 61.8582V73.2569C5.80518 73.6285 6.10719 73.9305 6.47999 73.9305H26.3504C26.7232 73.9305 27.0252 73.6285 27.0252 73.2569V61.8582C27.0264 61.4854 26.7244 61.1833 26.3516 61.1833ZM25.6768 72.5832H7.1548V62.533H25.6768V72.5832Z" fill="#2A8960"/>
<path d="M9.33842 63.719H8.27783V71.4947H9.33842V63.719Z" fill="#2A8960"/>
<path d="M24.4439 63.719H23.5461V71.4947H24.4439V63.719Z" fill="#2A8960"/>
<path d="M11.1649 63.719H10.1055V71.4947H11.1649V63.719Z" fill="#2A8960"/>
<path d="M15.202 63.719H14.1426V71.4947H15.202V63.719Z" fill="#2A8960"/>
<path d="M18.7906 63.719H17.894V71.4947H18.7906V63.719Z" fill="#2A8960"/>
<path d="M20.3255 63.719H19.4277V71.4947H20.3255V63.719Z" fill="#2A8960"/>
<path d="M17.3879 63.719H15.9038V71.4947H17.3879V63.719Z" fill="#2A8960"/>
<path d="M13.4168 63.719H11.7039V71.4947H13.4168V63.719Z" fill="#2A8960"/>
<path d="M22.7794 63.719H21.0664V71.4947H22.7794V63.719Z" fill="#2A8960"/>
</svg>
