<svg width="190" height="43" viewBox="0 0 190 43" fill="none" xmlns="http://www.w3.org/2000/svg">
<path fill-rule="evenodd" clip-rule="evenodd" d="M40.8492 14.0466C42.0006 15.4001 43.1209 16.7734 44.2146 18.1147C45.7609 20.011 47.2565 21.8445 48.7028 23.4528C52.3133 27.4682 56.6564 31.5093 61.431 33.5044C66.1226 35.4648 71.2624 35.4387 76.5761 31.4123L78.8145 29.7163L77.4222 32.1538C75.0901 36.2371 71.47 39.0247 67.3601 40.3833C63.1426 41.7773 58.4098 41.6642 54.0295 39.9003C51.5182 38.8897 49.0845 37.206 46.8385 35.2539C44.614 33.3205 42.5709 31.1196 40.823 29.0529L40.6758 28.8795L40.6745 28.8972L39.9444 28.0406L39.9406 28.0979C38.7892 26.7444 37.6693 25.3711 36.5752 24.0298C35.0289 22.1335 33.5333 20.3 32.087 18.6917C28.4765 14.6763 24.1334 10.6352 19.3583 8.64011C14.6668 6.68007 9.52735 6.7058 4.2137 10.7317L1.97485 12.4277L3.36717 9.98983C5.69923 5.90652 9.31983 3.11894 13.4297 1.76079C17.6471 0.366362 22.38 0.4794 26.7602 2.24331C29.2716 3.25391 31.7053 4.93767 33.9513 6.8897C36.1758 8.82316 38.2189 11.0245 39.9668 13.0908L40.114 13.2641L40.1152 13.2464L40.8454 14.1031L40.8492 14.0466Z" fill="white"/>
<path d="M89.7861 30.3493V41.9741H97.6242V40.6455H91.181V30.3493H89.7861ZM100.855 36.1615C100.855 36.9253 100.985 37.6618 101.245 38.3699C101.505 39.0785 101.879 39.718 102.366 40.2882C102.853 40.8585 103.49 41.3153 104.276 41.6582C105.062 42.0015 105.948 42.1732 106.933 42.1732C107.918 42.1732 108.804 42.0015 109.59 41.6582C110.376 41.3153 111.013 40.8585 111.5 40.2882C111.987 39.718 112.361 39.0785 112.621 38.3699C112.881 37.6613 113.011 36.9253 113.011 36.1615C113.011 35.3976 112.881 34.6612 112.621 33.9526C112.361 33.244 111.987 32.6046 111.5 32.0347C111.013 31.4645 110.376 31.0077 109.59 30.6648C108.804 30.3214 107.918 30.1498 106.933 30.1498C105.948 30.1498 105.062 30.3214 104.276 30.6648C103.49 31.0077 102.853 31.4645 102.366 32.0347C101.879 32.605 101.505 33.2444 101.245 33.9526C100.985 34.6616 100.855 35.3976 100.855 36.1615ZM111.599 36.1615C111.599 36.7705 111.503 37.3518 111.309 37.9051C111.115 38.459 110.833 38.9571 110.462 39.3995C110.091 39.8424 109.601 40.1938 108.992 40.454C108.384 40.7142 107.697 40.8441 106.933 40.8441C106.169 40.8441 105.483 40.7138 104.874 40.454C104.265 40.1938 103.775 39.8424 103.404 39.3995C103.033 38.9567 102.751 38.4585 102.557 37.9051C102.363 37.3513 102.267 36.7705 102.267 36.1615C102.267 35.5524 102.363 34.9712 102.557 34.4178C102.751 33.864 103.033 33.3663 103.404 32.9234C103.775 32.4806 104.265 32.1292 104.874 31.869C105.482 31.6087 106.169 31.4788 106.933 31.4788C107.697 31.4788 108.383 31.6087 108.992 31.869C109.601 32.1292 110.091 32.4806 110.462 32.9234C110.833 33.3663 111.115 33.8644 111.309 34.4178C111.503 34.9716 111.599 35.5524 111.599 36.1615ZM116.756 36.1615C116.756 37.2134 116.933 38.138 117.287 38.9347C117.642 39.7319 118.121 40.3599 118.724 40.8197C119.327 41.279 119.994 41.6194 120.725 41.8408C121.455 42.0623 122.236 42.1732 123.067 42.1732C124.362 42.1732 125.574 41.9129 126.703 41.3925V35.7958H125.308V40.4127C124.71 40.7003 123.996 40.8441 123.166 40.8441C122.524 40.8441 121.918 40.7611 121.348 40.5949C120.777 40.4287 120.249 40.1718 119.761 39.8226C119.274 39.4738 118.887 38.987 118.599 38.3611C118.311 37.7356 118.167 37.0021 118.167 36.1606C118.167 35.3635 118.308 34.6549 118.591 34.0348C118.873 33.4148 119.255 32.9251 119.737 32.5649C120.218 32.2051 120.747 31.9339 121.323 31.7513C121.898 31.5687 122.502 31.4776 123.133 31.4776C124.428 31.4776 125.524 31.7597 126.421 32.3245V30.9297C125.38 30.4096 124.218 30.1489 122.933 30.1489C121.871 30.1489 120.88 30.3649 119.961 30.7968C119.042 31.2283 118.278 31.9124 117.669 32.8479C117.06 33.7843 116.756 34.8885 116.756 36.1615ZM131.461 30.3493V41.9741H132.856V30.3493H131.461ZM137.448 33.2225C137.448 33.7763 137.575 34.2575 137.83 34.6671C138.084 35.0767 138.417 35.4006 138.826 35.6385C139.236 35.8764 139.684 36.0868 140.171 36.2695C140.658 36.4521 141.148 36.6208 141.64 36.776C142.133 36.9308 142.584 37.1025 142.994 37.291C143.404 37.4791 143.736 37.7255 143.99 38.03C144.245 38.3345 144.372 38.6968 144.372 39.1178C144.372 40.2693 143.376 40.845 141.383 40.845C139.955 40.845 138.659 40.4907 137.497 39.7821V41.1774C138.682 41.8417 140.01 42.1736 141.482 42.1736C142.058 42.1736 142.595 42.1184 143.093 42.0074C143.591 41.8965 144.045 41.7194 144.455 41.476C144.865 41.2326 145.188 40.9002 145.426 40.4797C145.665 40.0592 145.784 39.572 145.784 39.0182C145.784 38.3653 145.612 37.806 145.269 37.3408C144.925 36.8756 144.499 36.5301 143.99 36.3028C143.481 36.0759 142.925 35.8544 142.321 35.6385C141.718 35.4225 141.161 35.2314 140.652 35.0657C140.143 34.8999 139.717 34.6561 139.374 34.3351C139.031 34.0142 138.859 33.6266 138.859 33.1727C138.859 32.0432 139.75 31.4788 141.532 31.4788C142.839 31.4565 143.979 31.761 144.953 32.3924V30.9971C143.968 30.4328 142.794 30.1502 141.433 30.1502C140.303 30.1502 139.356 30.4159 138.593 30.9474C137.83 31.4784 137.448 32.2368 137.448 33.2225ZM148.683 30.3493V31.6775H152.768V41.9737H154.163V31.6775H158.249V30.3493H148.683ZM162.242 30.3493V41.9741H163.637V30.3493H162.242ZM168.145 36.2446C168.145 37.1746 168.323 38.0241 168.677 38.7938C169.031 39.5632 169.502 40.1887 170.089 40.6704C170.676 41.1521 171.329 41.5228 172.048 41.783C172.768 42.0433 173.498 42.1732 174.24 42.1732C175.48 42.1732 176.604 41.9129 177.611 41.3925V39.9976C176.814 40.5624 175.79 40.8446 174.539 40.8446C173.698 40.8446 172.909 40.6843 172.173 40.3629C171.436 40.0419 170.817 39.5214 170.313 38.8019C169.809 38.0823 169.557 37.2294 169.557 36.2446C169.568 34.6945 170.061 33.5127 171.035 32.699C172.009 31.8854 173.161 31.4784 174.489 31.4784C175.674 31.4784 176.687 31.7606 177.529 32.3253V30.9305C176.543 30.4104 175.452 30.1498 174.257 30.1498C173.216 30.1498 172.242 30.3712 171.334 30.8141C170.426 31.257 169.668 31.9516 169.059 32.8981C168.45 33.845 168.145 34.9602 168.145 36.2446ZM181.307 33.2225C181.307 33.7763 181.434 34.2575 181.689 34.6671C181.943 35.0767 182.276 35.4006 182.685 35.6385C183.095 35.8764 183.543 36.0868 184.03 36.2695C184.517 36.4521 185.007 36.6208 185.499 36.776C185.992 36.9308 186.443 37.1025 186.853 37.291C187.262 37.4791 187.595 37.7255 187.849 38.03C188.104 38.3345 188.231 38.6968 188.231 39.1178C188.231 40.2693 187.235 40.845 185.242 40.845C183.813 40.845 182.518 40.4907 181.356 39.7821V41.1774C182.541 41.8417 183.869 42.1736 185.341 42.1736C185.917 42.1736 186.454 42.1184 186.952 42.0074C187.45 41.8965 187.904 41.7194 188.314 41.476C188.724 41.2326 189.047 40.9002 189.285 40.4797C189.523 40.0588 189.643 39.572 189.643 39.0182C189.643 38.3653 189.471 37.806 189.128 37.3408C188.784 36.8756 188.358 36.5301 187.849 36.3028C187.34 36.0759 186.784 35.8544 186.18 35.6385C185.577 35.4225 185.02 35.2314 184.511 35.0657C184.002 34.8999 183.576 34.6561 183.233 34.3351C182.889 34.0142 182.718 33.6266 182.718 33.1727C182.718 32.0432 183.609 31.4788 185.391 31.4788C186.698 31.4565 187.838 31.761 188.812 32.3924V30.9971C187.827 30.4328 186.653 30.1502 185.291 30.1502C184.162 30.1502 183.215 30.4159 182.452 30.9474C181.689 31.4784 181.307 32.2368 181.307 33.2225Z" fill="white"/>
<path d="M95.38 19.0221H105.821L107.485 23.2965H112.542L103.243 0.456794H97.9576L88.626 23.2965H93.6832L95.38 19.0221ZM100.078 6.78653C100.307 6.26436 100.47 5.67723 100.6 4.99183C100.698 5.57938 100.862 6.16651 101.09 6.78653L104.288 14.9763H96.9137L100.078 6.78653ZM133.816 0.456794H128.53L122.396 17.5539L116.295 0.456794H111.009L119.884 23.2965H124.908L133.816 0.456794ZM136.785 23.2965H141.679V0.456794H136.785V23.2965ZM145.888 6.49297C145.888 10.5063 149.021 12.1702 152.153 13.2795C155.253 14.5191 158.385 15.1067 158.385 17.2603C158.385 18.7285 156.949 19.4464 154.11 19.4464C151.141 19.4464 148.466 18.6307 146.018 17.0321V21.6979C148.466 23.0683 151.304 23.7537 154.469 23.7537C159.265 23.7537 163.377 22.1222 163.377 17.0321C163.377 15.7596 163.083 14.6503 162.463 13.7038C161.223 11.7788 159.298 10.996 157.145 10.1473C154.012 8.94017 150.88 8.48337 150.88 6.42759C150.88 5.05721 152.119 4.33933 154.599 4.30685C157.372 4.27437 159.722 4.92688 161.647 6.32974V1.7618C159.591 0.587126 157.111 0 154.24 0C151.858 0 149.868 0.554648 148.269 1.66394C146.671 2.77324 145.888 4.37223 145.888 6.49297ZM166.509 16.3467C167.521 19.1853 169.446 21.4693 172.578 22.7743C174.144 23.4268 175.906 23.7533 177.864 23.7533C179.822 23.7533 181.583 23.4272 183.149 22.7743C189.283 20.3271 191.241 13.1492 189.251 7.40656C188.207 4.56794 186.282 2.28397 183.149 0.978964C181.583 0.326462 179.821 0 177.864 0C175.906 0 174.144 0.32604 172.578 0.978964C166.444 3.42616 164.486 10.6041 166.509 16.3467ZM183.117 17.1296C181.877 18.5328 180.115 19.2178 177.864 19.2178C175.58 19.2178 173.818 18.5324 172.578 17.1296C171.339 15.7267 170.719 13.9974 170.719 11.8766C170.719 9.7559 171.339 8.02658 172.578 6.6233C173.818 5.22002 175.58 4.53504 177.864 4.53504C180.115 4.53504 181.877 5.22044 183.117 6.6233C184.357 8.02616 184.977 9.75548 184.977 11.8766C184.977 13.9974 184.357 15.7267 183.117 17.1296Z" fill="white"/>
<path fill-rule="evenodd" clip-rule="evenodd" d="M6.73259 12.1108C10.581 9.79186 16.0098 8.84537 22.7529 12.5347C9.60453 12.0206 7.48464 23.7585 12.3225 29.1088C15.8503 33.0103 23.0797 33.6337 32.432 23.065C34.5207 25.5607 36.5634 28.0712 38.6706 30.5454C34.4047 35.3234 29.5461 39.3768 23.3543 40.9504C10.4886 44.221 1.96051 36.4411 0.297828 27.6726C-0.801768 21.8756 1.09965 15.5054 6.73259 12.1108Z" fill="white"/>
<path fill-rule="evenodd" clip-rule="evenodd" d="M74.0538 30.0766C70.2055 32.3956 64.7766 33.3421 58.0336 29.6527C71.1819 30.1669 73.3018 18.429 68.4639 13.0786C64.9361 9.17713 57.7062 8.55373 48.3544 19.1224C46.2662 16.6267 44.223 14.1162 42.1162 11.642C46.3822 6.86405 51.2407 2.81069 57.4325 1.23701C70.2987 -2.03351 78.8263 5.74632 80.489 14.5148C81.5882 20.3118 79.6872 26.6821 74.0538 30.0766Z" fill="white"/>
</svg>
