<svg width="190" height="43" viewBox="0 0 190 43" fill="none" xmlns="http://www.w3.org/2000/svg">
<path fill-rule="evenodd" clip-rule="evenodd" d="M40.8492 14.0468C42.0006 15.4003 43.1209 16.7736 44.2146 18.1149C45.7609 20.0112 47.2565 21.8447 48.7028 23.453C52.3133 27.4684 56.6564 31.5095 61.431 33.5046C66.1226 35.465 71.2624 35.4389 76.5761 31.4125L78.8145 29.7165L77.4222 32.154C75.0901 36.2373 71.47 39.0249 67.3601 40.3835C63.1426 41.7775 58.4098 41.6645 54.0295 39.9005C51.5182 38.8899 49.0845 37.2062 46.8385 35.2542C44.614 33.3207 42.5709 31.1198 40.823 29.0531L40.6758 28.8797L40.6745 28.8974L39.9444 28.0408L39.9406 28.0981C38.7892 26.7446 37.6693 25.3713 36.5752 24.03C35.0289 22.1337 33.5333 20.3002 32.087 18.6919C28.4765 14.6765 24.1334 10.6354 19.3583 8.64033C14.6668 6.68029 9.52735 6.70602 4.2137 10.732L1.97485 12.428L3.36717 9.99004C5.69923 5.90673 9.31983 3.11915 13.4297 1.761C17.6471 0.366576 22.38 0.479613 26.7602 2.24352C29.2716 3.25412 31.7053 4.93789 33.9513 6.88991C36.1758 8.82338 38.2189 11.0247 39.9668 13.091L40.114 13.2644L40.1152 13.2466L40.8454 14.1033L40.8492 14.0468Z" fill="url(#paint0_linear_173_535)"/>
<path d="M89.7861 30.3492V41.974H97.6242V40.6454H91.181V30.3492H89.7861ZM100.855 36.1614C100.855 36.9252 100.985 37.6617 101.245 38.3699C101.505 39.0785 101.879 39.7179 102.366 40.2881C102.853 40.8584 103.49 41.3152 104.276 41.6581C105.062 42.0014 105.948 42.1731 106.933 42.1731C107.918 42.1731 108.804 42.0014 109.59 41.6581C110.376 41.3152 111.013 40.8584 111.5 40.2881C111.987 39.7179 112.361 39.0785 112.621 38.3699C112.881 37.6613 113.011 36.9252 113.011 36.1614C113.011 35.3975 112.881 34.6611 112.621 33.9525C112.361 33.2439 111.987 32.6045 111.5 32.0346C111.013 31.4644 110.376 31.0076 109.59 30.6647C108.804 30.3213 107.918 30.1497 106.933 30.1497C105.948 30.1497 105.062 30.3213 104.276 30.6647C103.49 31.0076 102.853 31.4644 102.366 32.0346C101.879 32.6049 101.505 33.2443 101.245 33.9525C100.985 34.6615 100.855 35.3975 100.855 36.1614ZM111.599 36.1614C111.599 36.7704 111.503 37.3517 111.309 37.9051C111.115 38.4589 110.833 38.957 110.462 39.3994C110.091 39.8423 109.601 40.1937 108.992 40.4539C108.384 40.7141 107.697 40.8441 106.933 40.8441C106.169 40.8441 105.483 40.7137 104.874 40.4539C104.265 40.1937 103.775 39.8423 103.404 39.3994C103.033 38.9566 102.751 38.4584 102.557 37.9051C102.363 37.3512 102.267 36.7704 102.267 36.1614C102.267 35.5523 102.363 34.9711 102.557 34.4177C102.751 33.8639 103.033 33.3662 103.404 32.9233C103.775 32.4805 104.265 32.1291 104.874 31.8689C105.482 31.6086 106.169 31.4787 106.933 31.4787C107.697 31.4787 108.383 31.6086 108.992 31.8689C109.601 32.1291 110.091 32.4805 110.462 32.9233C110.833 33.3662 111.115 33.8643 111.309 34.4177C111.503 34.9715 111.599 35.5523 111.599 36.1614ZM116.756 36.1614C116.756 37.2133 116.933 38.1379 117.287 38.9346C117.642 39.7318 118.121 40.3598 118.724 40.8196C119.327 41.2789 119.994 41.6193 120.725 41.8407C121.455 42.0622 122.236 42.1731 123.067 42.1731C124.362 42.1731 125.574 41.9129 126.703 41.3924V35.7957H125.308V40.4126C124.71 40.7002 123.996 40.8441 123.166 40.8441C122.524 40.8441 121.918 40.761 121.348 40.5948C120.777 40.4286 120.249 40.1717 119.761 39.8225C119.274 39.4737 118.887 38.9869 118.599 38.361C118.311 37.7355 118.167 37.002 118.167 36.1605C118.167 35.3634 118.308 34.6548 118.591 34.0347C118.873 33.4147 119.255 32.925 119.737 32.5648C120.218 32.205 120.747 31.9338 121.323 31.7512C121.898 31.5686 122.502 31.4775 123.133 31.4775C124.428 31.4775 125.524 31.7596 126.421 32.3244V30.9296C125.38 30.4095 124.218 30.1488 122.933 30.1488C121.871 30.1488 120.88 30.3648 119.961 30.7967C119.042 31.2282 118.278 31.9123 117.669 32.8478C117.06 33.7842 116.756 34.8884 116.756 36.1614ZM131.461 30.3492V41.974H132.856V30.3492H131.461ZM137.448 33.2224C137.448 33.7762 137.575 34.2575 137.83 34.667C138.084 35.0766 138.417 35.4005 138.826 35.6384C139.236 35.8763 139.684 36.0867 140.171 36.2694C140.658 36.452 141.148 36.6207 141.64 36.7759C142.133 36.9307 142.584 37.1024 142.994 37.2909C143.404 37.479 143.736 37.7254 143.99 38.0299C144.245 38.3344 144.372 38.6967 144.372 39.1177C144.372 40.2692 143.376 40.8449 141.383 40.8449C139.955 40.8449 138.659 40.4906 137.497 39.782V41.1773C138.682 41.8416 140.01 42.1735 141.482 42.1735C142.058 42.1735 142.595 42.1183 143.093 42.0073C143.591 41.8964 144.045 41.7193 144.455 41.4759C144.865 41.2325 145.188 40.9002 145.426 40.4796C145.665 40.0591 145.784 39.5719 145.784 39.0181C145.784 38.3652 145.612 37.8059 145.269 37.3407C144.925 36.8755 144.499 36.53 143.99 36.3027C143.481 36.0758 142.925 35.8543 142.321 35.6384C141.718 35.4224 141.161 35.2314 140.652 35.0656C140.143 34.8998 139.717 34.656 139.374 34.3351C139.031 34.0141 138.859 33.6265 138.859 33.1726C138.859 32.0431 139.75 31.4787 141.532 31.4787C142.839 31.4564 143.979 31.7609 144.953 32.3923V30.997C143.968 30.4327 142.794 30.1501 141.433 30.1501C140.303 30.1501 139.356 30.4158 138.593 30.9473C137.83 31.4783 137.448 32.2367 137.448 33.2224ZM148.683 30.3492V31.6774H152.768V41.9736H154.163V31.6774H158.249V30.3492H148.683ZM162.242 30.3492V41.974H163.637V30.3492H162.242ZM168.145 36.2445C168.145 37.1745 168.323 38.024 168.677 38.7938C169.031 39.5631 169.502 40.1886 170.089 40.6703C170.676 41.152 171.329 41.5227 172.048 41.783C172.768 42.0432 173.498 42.1731 174.24 42.1731C175.48 42.1731 176.604 41.9129 177.611 41.3924V39.9975C176.814 40.5623 175.79 40.8445 174.539 40.8445C173.698 40.8445 172.909 40.6842 172.173 40.3628C171.436 40.0418 170.817 39.5213 170.313 38.8018C169.809 38.0822 169.557 37.2294 169.557 36.2445C169.568 34.6944 170.061 33.5126 171.035 32.699C172.009 31.8853 173.161 31.4783 174.489 31.4783C175.674 31.4783 176.687 31.7605 177.529 32.3252V30.9304C176.543 30.4103 175.452 30.1497 174.257 30.1497C173.216 30.1497 172.242 30.3711 171.334 30.814C170.426 31.2569 169.668 31.9515 169.059 32.898C168.45 33.8449 168.145 34.9601 168.145 36.2445ZM181.307 33.2224C181.307 33.7762 181.434 34.2575 181.689 34.667C181.943 35.0766 182.276 35.4005 182.685 35.6384C183.095 35.8763 183.543 36.0867 184.03 36.2694C184.517 36.452 185.007 36.6207 185.499 36.7759C185.992 36.9307 186.443 37.1024 186.853 37.2909C187.262 37.479 187.595 37.7254 187.849 38.0299C188.104 38.3344 188.231 38.6967 188.231 39.1177C188.231 40.2692 187.235 40.8449 185.242 40.8449C183.813 40.8449 182.518 40.4906 181.356 39.782V41.1773C182.541 41.8416 183.869 42.1735 185.341 42.1735C185.917 42.1735 186.454 42.1183 186.952 42.0073C187.45 41.8964 187.904 41.7193 188.314 41.4759C188.724 41.2325 189.047 40.9002 189.285 40.4796C189.523 40.0587 189.643 39.5719 189.643 39.0181C189.643 38.3652 189.471 37.8059 189.128 37.3407C188.784 36.8755 188.358 36.53 187.849 36.3027C187.34 36.0758 186.784 35.8543 186.18 35.6384C185.577 35.4224 185.02 35.2314 184.511 35.0656C184.002 34.8998 183.576 34.656 183.233 34.3351C182.889 34.0141 182.718 33.6265 182.718 33.1726C182.718 32.0431 183.609 31.4787 185.391 31.4787C186.698 31.4564 187.838 31.7609 188.812 32.3923V30.997C187.827 30.4327 186.653 30.1501 185.291 30.1501C184.162 30.1501 183.215 30.4158 182.452 30.9473C181.689 31.4783 181.307 32.2367 181.307 33.2224Z" fill="white"/>
<path d="M95.38 19.0221H105.821L107.485 23.2965H112.542L103.243 0.456794H97.9576L88.626 23.2965H93.6832L95.38 19.0221ZM100.078 6.78653C100.307 6.26436 100.47 5.67723 100.6 4.99183C100.698 5.57938 100.862 6.16651 101.09 6.78653L104.288 14.9763H96.9137L100.078 6.78653ZM133.816 0.456794H128.53L122.396 17.5539L116.295 0.456794H111.009L119.884 23.2965H124.908L133.816 0.456794ZM136.785 23.2965H141.679V0.456794H136.785V23.2965ZM145.888 6.49297C145.888 10.5063 149.021 12.1702 152.153 13.2795C155.253 14.5191 158.385 15.1067 158.385 17.2603C158.385 18.7285 156.949 19.4464 154.11 19.4464C151.141 19.4464 148.466 18.6307 146.018 17.0321V21.6979C148.466 23.0683 151.304 23.7537 154.469 23.7537C159.265 23.7537 163.377 22.1222 163.377 17.0321C163.377 15.7596 163.083 14.6503 162.463 13.7038C161.223 11.7788 159.298 10.996 157.145 10.1473C154.012 8.94017 150.88 8.48337 150.88 6.42759C150.88 5.05721 152.119 4.33933 154.599 4.30685C157.372 4.27437 159.722 4.92688 161.647 6.32974V1.7618C159.591 0.587126 157.111 0 154.24 0C151.858 0 149.868 0.554648 148.269 1.66394C146.671 2.77324 145.888 4.37223 145.888 6.49297ZM166.509 16.3467C167.521 19.1853 169.446 21.4693 172.578 22.7743C174.144 23.4268 175.906 23.7533 177.864 23.7533C179.822 23.7533 181.583 23.4272 183.149 22.7743C189.283 20.3271 191.241 13.1492 189.251 7.40656C188.207 4.56794 186.282 2.28397 183.149 0.978964C181.583 0.326462 179.821 0 177.864 0C175.906 0 174.144 0.32604 172.578 0.978964C166.444 3.42616 164.486 10.6041 166.509 16.3467ZM183.117 17.1296C181.877 18.5328 180.115 19.2178 177.864 19.2178C175.58 19.2178 173.818 18.5324 172.578 17.1296C171.339 15.7267 170.719 13.9974 170.719 11.8766C170.719 9.7559 171.339 8.02658 172.578 6.6233C173.818 5.22002 175.58 4.53504 177.864 4.53504C180.115 4.53504 181.877 5.22044 183.117 6.6233C184.357 8.02616 184.977 9.75548 184.977 11.8766C184.977 13.9974 184.357 15.7267 183.117 17.1296Z" fill="white"/>
<path fill-rule="evenodd" clip-rule="evenodd" d="M6.73259 12.1108C10.581 9.7918 16.0098 8.84531 22.7529 12.5347C9.60453 12.0205 7.48464 23.7584 12.3225 29.1087C15.8503 33.0103 23.0797 33.6337 32.432 23.065C34.5207 25.5607 36.5634 28.0711 38.6706 30.5453C34.4047 35.3233 29.5461 39.3767 23.3543 40.9504C10.4886 44.2209 1.96051 36.4411 0.297828 27.6726C-0.801768 21.8755 1.09965 15.5053 6.73259 12.1108Z" fill="white"/>
<path fill-rule="evenodd" clip-rule="evenodd" d="M74.0538 30.0767C70.2055 32.3957 64.7766 33.3422 58.0336 29.6528C71.1819 30.167 73.3018 18.4291 68.4639 13.0788C64.9361 9.17725 57.7062 8.55385 48.3544 19.1225C46.2662 16.6268 44.223 14.1164 42.1162 11.6422C46.3822 6.86418 51.2407 2.81082 57.4325 1.23713C70.2987 -2.03339 78.8263 5.74645 80.489 14.5149C81.5882 20.312 79.6872 26.6822 74.0538 30.0767Z" fill="white"/>
<defs>
<linearGradient id="paint0_linear_173_535" x1="1.97485" y1="21.0721" x2="78.8145" y2="21.0721" gradientUnits="userSpaceOnUse">
<stop stop-color="#298860"/>
<stop offset="1" stop-color="#65D521"/>
</linearGradient>
</defs>
</svg>
