<svg width="107" height="76" viewBox="0 0 107 76" fill="none" xmlns="http://www.w3.org/2000/svg">
<path d="M53.1122 47.4388C53.7277 46.5253 54.2409 45.6473 54.6498 44.8015C55.0587 43.9558 55.3632 43.1133 55.5655 42.2729C55.7678 41.4326 55.8679 40.5427 55.8679 39.6023C55.8679 37.531 55.3105 35.9116 54.1958 34.7474C53.0821 33.5821 51.5326 33 49.5517 33C48.3757 33 47.2836 33.2464 46.2753 33.7403C45.2671 34.232 44.1761 35.1455 43 36.4787L45.5534 39.1665C46.2926 38.3488 46.9199 37.7828 47.4342 37.4697C47.9496 37.1555 48.5037 36.9984 49.0977 36.9984C49.7702 36.9984 50.3157 37.2341 50.7353 37.7043C51.1561 38.1745 51.3648 38.8803 51.3648 39.8207C51.3648 40.6267 51.2583 41.4089 51.0463 42.1643C50.8333 42.9207 50.5029 43.7105 50.0542 44.5336C49.6066 45.3567 48.7835 46.6189 47.5848 48.3211L43.2163 54.5038V57.9136H56.3865V53.8485H48.3402V53.714C50.9054 50.443 52.4968 48.3523 53.1122 47.4388Z" fill="#2A8960"/>
<path d="M65.9469 33.3526L58.5225 49.0428V52.755H66.5354V57.9123H70.8351V52.755H73.3228V48.975H70.8351V33.3516H65.9469V33.3526ZM66.6194 41.5173L66.5354 43.8017V48.9761H62.3692L65.326 42.6428C65.7854 41.6572 66.2105 40.5543 66.6032 39.333H66.7377L66.6194 41.5173Z" fill="#2A8960"/>
<path d="M48.3743 69.214V60.8857H46.8249V64.1944H44.7805V60.8857H43.23V69.214H44.7805V65.5631H46.8249V69.214H48.3743Z" fill="#2A8960"/>
<path d="M52.5958 60.7529C51.6241 60.7529 50.8796 61.1209 50.3631 61.8558C49.8477 62.5897 49.5884 63.6463 49.5884 65.0246C49.5884 66.4148 49.8466 67.479 50.3631 68.2171C50.8796 68.9574 51.6209 69.3254 52.585 69.3254C53.5459 69.3254 54.284 68.9542 54.8005 68.215C55.317 67.4747 55.5763 66.4148 55.5763 65.0365C55.5763 63.6581 55.3202 62.5993 54.8069 61.8612C54.2937 61.1231 53.5566 60.7529 52.5958 60.7529ZM52.585 67.9535C52.1212 67.9535 51.7694 67.706 51.5316 67.2078C51.2917 66.7107 51.1722 65.9866 51.1722 65.0375C51.1722 64.0842 51.2917 63.359 51.5316 62.864C51.7705 62.368 52.1256 62.1216 52.5958 62.1216C53.5222 62.1216 53.986 63.0921 53.986 65.0375C53.986 66.9808 53.519 67.9535 52.585 67.9535Z" fill="#2A8960"/>
<path d="M56.7544 60.8849V66.2509C56.7544 67.2634 56.9707 68.0306 57.4043 68.5492C57.8379 69.0678 58.4674 69.3271 59.2948 69.3271C60.1417 69.3271 60.7905 69.0657 61.2381 68.5438C61.6868 68.0209 61.9106 67.2645 61.9106 66.2735V60.8849H60.3719V66.3983C60.3719 66.8965 60.2826 67.2795 60.104 67.5496C59.9254 67.8186 59.6736 67.9531 59.3465 67.9531C58.6449 67.9531 58.2931 67.4237 58.2931 66.3638V60.8838H56.7544V60.8849Z" fill="#2A8960"/>
<path d="M68.4203 69.2129L66.8202 65.562C67.5304 65.1435 67.8844 64.4096 67.8844 63.3573C67.8844 62.5223 67.681 61.9004 67.2732 61.4948C66.8643 61.088 66.2316 60.8857 65.373 60.8857H63.3447V69.2129H64.8931V65.972H65.4462L66.7621 69.2129H68.4203ZM66.0789 64.3279C65.9196 64.5345 65.6571 64.6388 65.2934 64.6388H64.8931V62.2232H65.2805C65.6334 62.2232 65.8949 62.3136 66.0638 62.4933C66.2327 62.6741 66.3177 62.9764 66.3177 63.4025C66.3177 63.8125 66.2381 64.1213 66.0789 64.3279Z" fill="#2A8960"/>
<path d="M70.5443 67.9768C70.0246 67.9768 69.4521 67.7746 68.8291 67.3679V68.9001C69.3391 69.1852 69.9557 69.3272 70.6809 69.3272C71.4212 69.3272 71.9883 69.1206 72.381 68.7064C72.7737 68.2921 72.9706 67.6971 72.9706 66.9181C72.9706 66.4317 72.8631 65.9992 72.6489 65.6194C72.4348 65.2385 72.055 64.8672 71.5127 64.5035C71.1102 64.2367 70.8273 63.9989 70.6659 63.7912C70.5055 63.5825 70.4238 63.3372 70.4238 63.0553C70.4238 62.7712 70.4916 62.5452 70.6261 62.3806C70.7606 62.216 70.9532 62.1331 71.2039 62.1331C71.432 62.1331 71.645 62.1751 71.8452 62.259C72.0442 62.3419 72.2347 62.4366 72.4165 62.5431L72.9298 61.3025C72.3412 60.9452 71.7289 60.7666 71.0898 60.7666C70.4216 60.7666 69.889 60.9754 69.493 61.3939C69.096 61.8114 68.8969 62.3774 68.8969 63.0908C68.8969 63.4631 68.9475 63.7891 69.0486 64.0699C69.1498 64.3518 69.2918 64.6047 69.4747 64.8307C69.6598 65.0566 69.9299 65.2933 70.2871 65.5397C70.6971 65.8216 70.9908 66.0756 71.1694 66.3058C71.3481 66.5361 71.4373 66.789 71.4373 67.0666C71.4373 67.3474 71.3631 67.5701 71.2125 67.7326C71.0618 67.8951 70.8413 67.9768 70.5443 67.9768Z" fill="#2A8960"/>
<path d="M88.2298 38.8247C84.2822 30.3473 76.6715 24.1074 67.8723 22.1336C66.9447 21.9258 66.0225 22.5095 65.8137 23.4376C65.6063 24.3662 66.19 25.2885 67.1177 25.4963C74.882 27.2386 81.6057 32.7639 85.1055 40.2796C89.1907 49.0526 88.3472 59.0963 83.0598 66.4688L83.0936 59.5036C83.0979 58.552 82.33 57.7772 81.378 57.7719C80.4254 57.768 79.6516 58.5354 79.6463 59.4875L79.5926 70.919C79.5904 71.4494 79.8329 71.9525 80.2499 72.2794C80.6672 72.6073 81.2117 72.7264 81.7274 72.6002L93.5716 69.6913C93.6826 69.6646 93.7892 69.6257 93.8896 69.5789C94.6202 69.2387 95.0339 68.4194 94.8336 67.607C94.6076 66.6832 93.6736 66.1175 92.7493 66.345L86.2378 67.9433C91.9083 59.6221 92.7447 48.5205 88.2298 38.8247Z" fill="#298860"/>
<path d="M67 9.5L71 12.5L56 28L51.5 25.5M67 9.5L54.5 5C54.5 5 39 12.5 28.5 26.25C18 40 15 60 15 60L22.5 71.5M67 9.5L51.5 25.5M22.5 71.5L26.5 74.5L37 55L32.75 51.75M22.5 71.5L32.75 51.75M51.5 25.5L47 23C47 23 40.5 28 36 34C31.5 40 28.5 48.5 28.5 48.5L32.75 51.75" stroke="#7D92A4" stroke-width="2"/>
</svg>
