<svg width="107" height="76" viewBox="0 0 107 76" fill="none" xmlns="http://www.w3.org/2000/svg">
<path d="M38 61.9996H68L68.4825 56.4996M17 61.9996H4L4.48246 56.4996M4.48246 56.4996H20.4825M4.48246 56.4996L5.66667 42.9996M68.4825 56.4996H36.4825M68.4825 56.4996L69.6667 42.9996M5.66667 42.9996L9 4.99962H73L69.6667 42.9996M5.66667 42.9996H69.6667" stroke="#7D92A4" stroke-width="2"/>
<path d="M104 41.3431L101.023 62H95M104 41.3431L94.5736 25.7451M104 41.3431H76.7907V25.7451H94.5736M94.5736 25.7451L89.969 19H71.969L68 62H73.8605" stroke="#7D92A4" stroke-width="2"/>
<ellipse cx="27.7969" cy="63.4231" rx="10.5469" ry="10.5769" stroke="#7D92A4" stroke-width="2"/>
<ellipse cx="85.1719" cy="63.4231" rx="10.5469" ry="10.5769" stroke="#7D92A4" stroke-width="2"/>
<circle cx="27.5" cy="63.4995" r="4.5" stroke="#7D92A4" stroke-width="2"/>
<circle cx="85.5" cy="63.4995" r="4.5" stroke="#7D92A4" stroke-width="2"/>
<path d="M12.8889 25H28L26.1111 39H11L12.8889 25Z" fill="#298860"/>
<path d="M30.8889 25H46L44.1111 39H29L30.8889 25Z" fill="#298860"/>
<path d="M48.8889 25H64L62.1111 39H47L48.8889 25Z" fill="#298860"/>
<path d="M14.8889 9H30L28.1111 23H13L14.8889 9Z" fill="#298860"/>
<path d="M32.8889 9H48L46.1111 23H31L32.8889 9Z" fill="#298860"/>
<path d="M50.8889 9H66L64.1111 23H49L50.8889 9Z" fill="#298860"/>
</svg>
