<svg width="339" height="141" viewBox="0 0 339 141" fill="none" xmlns="http://www.w3.org/2000/svg">
<path d="M4 101.666V140.336H30.2167V135.917H8.66549V101.666H4ZM41.0219 121.001C41.0219 123.542 41.4579 125.991 42.3269 128.347C43.1974 130.704 44.4473 132.831 46.0768 134.728C47.7062 136.625 49.8365 138.145 52.4648 139.285C55.0931 140.428 58.0572 140.999 61.3528 140.999C64.6484 140.999 67.6111 140.428 70.2408 139.285C72.8691 138.145 74.9994 136.625 76.6274 134.728C78.2569 132.831 79.5068 130.704 80.3773 128.347C81.2463 125.99 81.6823 123.542 81.6823 121.001C81.6823 118.46 81.2463 116.01 80.3773 113.653C79.5068 111.296 78.2569 109.169 76.6274 107.273C74.9994 105.376 72.8691 103.857 70.2408 102.716C67.6111 101.574 64.6484 101.003 61.3528 101.003C58.0572 101.003 55.0931 101.574 52.4648 102.716C49.8365 103.857 47.7062 105.376 46.0768 107.273C44.4473 109.17 43.1974 111.297 42.3269 113.653C41.4565 116.011 41.0219 118.46 41.0219 121.001ZM76.9604 121.001C76.9604 123.027 76.6373 124.96 75.9897 126.801C75.3408 128.643 74.397 130.3 73.1555 131.772C71.9154 133.245 70.2774 134.414 68.2403 135.28C66.2045 136.145 63.9077 136.578 61.3528 136.578C58.7965 136.578 56.5025 136.144 54.4653 135.28C52.4281 134.414 50.7902 133.245 49.5487 131.772C48.3087 130.299 47.3648 128.642 46.7159 126.801C46.0683 124.959 45.7452 123.027 45.7452 121.001C45.7452 118.975 46.0683 117.041 46.7159 115.2C47.3634 113.358 48.3087 111.703 49.5487 110.229C50.7902 108.756 52.4281 107.587 54.4653 106.722C56.5011 105.856 58.7965 105.424 61.3528 105.424C63.9077 105.424 66.2031 105.856 68.2403 106.722C70.2774 107.587 71.9154 108.756 73.1555 110.229C74.397 111.703 75.3408 113.36 75.9897 115.2C76.6373 117.043 76.9604 118.975 76.9604 121.001ZM94.2087 121.001C94.2087 124.5 94.8012 127.575 95.9863 130.226C97.1713 132.878 98.774 134.967 100.791 136.496C102.809 138.024 105.041 139.156 107.484 139.893C109.928 140.63 112.539 140.999 115.317 140.999C119.648 140.999 123.703 140.133 127.481 138.402V119.784H122.814V135.142C120.815 136.099 118.426 136.578 115.648 136.578C113.501 136.578 111.474 136.301 109.566 135.748C107.658 135.196 105.891 134.341 104.261 133.179C102.632 132.019 101.336 130.4 100.372 128.318C99.4088 126.237 98.9292 123.797 98.9292 120.998C98.9292 118.346 99.4004 115.989 100.346 113.926C101.289 111.864 102.568 110.235 104.179 109.037C105.79 107.84 107.558 106.938 109.483 106.33C111.409 105.723 113.428 105.42 115.538 105.42C119.869 105.42 123.536 106.358 126.537 108.237V103.597C123.055 101.867 119.167 101 114.871 101C111.316 101 108.002 101.718 104.928 103.155C101.854 104.59 99.3002 106.866 97.2616 109.978C95.2259 113.093 94.2087 116.766 94.2087 121.001ZM143.394 101.666V140.336H148.061V101.666H143.394ZM163.419 111.224C163.419 113.066 163.845 114.667 164.696 116.03C165.547 117.392 166.66 118.47 168.028 119.261C169.399 120.052 170.898 120.752 172.527 121.36C174.157 121.967 175.795 122.529 177.442 123.045C179.09 123.56 180.598 124.131 181.97 124.758C183.339 125.384 184.451 126.203 185.302 127.216C186.154 128.229 186.579 129.435 186.579 130.835C186.579 134.665 183.246 136.58 176.58 136.58C171.803 136.58 167.471 135.402 163.583 133.045V137.686C167.546 139.896 171.988 141 176.913 141C178.838 141 180.635 140.816 182.301 140.447C183.967 140.078 185.485 139.489 186.857 138.679C188.226 137.87 189.309 136.764 190.106 135.365C190.903 133.966 191.301 132.346 191.301 130.504C191.301 128.332 190.726 126.471 189.578 124.924C188.43 123.376 187.005 122.227 185.302 121.471C183.598 120.716 181.738 119.979 179.719 119.261C177.701 118.543 175.84 117.907 174.137 117.356C172.434 116.804 171.008 115.993 169.861 114.925C168.714 113.858 168.138 112.568 168.138 111.059C168.138 107.301 171.118 105.424 177.081 105.424C181.45 105.35 185.265 106.363 188.523 108.463V103.822C185.227 101.944 181.302 101.004 176.747 101.004C172.969 101.004 169.803 101.888 167.249 103.656C164.696 105.422 163.419 107.945 163.419 111.224ZM200.997 101.666V106.085H214.662V140.335H219.329V106.085H232.994V101.666H200.997ZM246.35 101.666V140.336H251.016V101.666H246.35ZM266.096 121.277C266.096 124.371 266.689 127.197 267.874 129.757C269.059 132.316 270.633 134.397 272.596 135.999C274.56 137.602 276.744 138.835 279.15 139.701C281.557 140.566 284.001 140.999 286.482 140.999C290.629 140.999 294.388 140.133 297.757 138.402V133.762C295.091 135.64 291.667 136.579 287.481 136.579C284.668 136.579 282.028 136.046 279.567 134.977C277.103 133.909 275.031 132.178 273.346 129.784C271.66 127.39 270.818 124.553 270.818 121.277C270.855 116.121 272.503 112.189 275.762 109.483C279.021 106.776 282.872 105.422 287.315 105.422C291.279 105.422 294.666 106.361 297.481 108.24V103.6C294.184 101.87 290.537 101.003 286.537 101.003C283.055 101.003 279.798 101.739 276.76 103.213C273.724 104.686 271.188 106.997 269.151 110.145C267.115 113.295 266.096 117.005 266.096 121.277ZM310.119 111.224C310.119 113.066 310.545 114.667 311.395 116.03C312.246 117.392 313.359 118.47 314.728 119.261C316.099 120.052 317.597 120.752 319.227 121.36C320.856 121.967 322.494 122.529 324.142 123.045C325.79 123.56 327.298 124.131 328.669 124.758C330.039 125.384 331.151 126.203 332.001 127.216C332.853 128.229 333.278 129.435 333.278 130.835C333.278 134.665 329.946 136.58 323.28 136.58C318.501 136.58 314.17 135.402 310.282 133.045V137.686C314.245 139.896 318.688 141 323.613 141C325.537 141 327.334 140.816 329.001 140.447C330.667 140.078 332.185 139.489 333.556 138.679C334.926 137.87 336.009 136.764 336.805 135.365C337.601 133.965 338 132.346 338 130.504C338 128.332 337.426 126.471 336.277 124.924C335.129 123.376 333.704 122.227 332.001 121.471C330.297 120.716 328.438 119.979 326.419 119.261C324.4 118.543 322.539 117.907 320.836 117.356C319.133 116.804 317.707 115.993 316.56 114.925C315.412 113.858 314.838 112.568 314.838 111.059C314.838 107.301 317.817 105.424 323.781 105.424C328.15 105.35 331.965 106.363 335.222 108.463V103.822C331.927 101.944 328.002 101.004 323.446 101.004C319.668 101.004 316.502 101.888 313.947 103.656C311.395 105.422 310.119 107.945 310.119 111.224Z" fill="white"/>
<path d="M22.5859 64.0645H57.5008L63.0651 78.4601H79.9768L48.88 1.53843H31.2054L0 78.4601H16.9116L22.5859 64.0645ZM38.2972 22.8563C39.0617 21.0977 39.6076 19.1203 40.0434 16.812C40.3706 18.7908 40.9165 20.7682 41.681 22.8563L52.3738 50.4388H27.7144L38.2972 22.8563ZM151.117 1.53843H133.442L112.93 59.1196L92.5257 1.53843H74.8497L104.527 78.4601H121.33L151.117 1.53843ZM161.045 78.4601H177.412V1.53843H161.045V78.4601ZM191.487 21.8676C191.487 35.384 201.963 40.988 212.437 44.724C222.803 48.8989 233.277 50.8777 233.277 58.1309C233.277 63.0758 228.476 65.4936 218.983 65.4936C209.053 65.4936 200.107 62.7463 191.923 57.3624V73.0763C200.107 77.6916 209.599 80 220.182 80C236.222 80 249.97 74.5054 249.97 57.3624C249.97 53.0767 248.988 49.3407 246.915 46.153C242.768 39.6697 236.331 37.0332 229.13 34.1751C218.655 30.1096 208.18 28.5711 208.18 21.6475C208.18 17.0322 212.326 14.6144 220.618 14.505C229.892 14.3957 237.748 16.5932 244.186 21.3179V5.93356C237.312 1.97738 229.019 0 219.418 0C211.453 0 204.797 1.868 199.451 5.60399C194.105 9.33999 191.487 14.7252 191.487 21.8676ZM260.446 55.0541C263.828 64.6143 270.265 72.3064 280.741 76.7015C285.978 78.8991 291.871 79.9986 298.415 79.9986C304.963 79.9986 310.855 78.9005 316.092 76.7015C336.604 68.4596 343.152 44.285 336.496 24.9445C333.003 15.3843 326.566 7.69217 316.092 3.29705C310.855 1.09949 304.961 0 298.415 0C291.869 0 285.978 1.09807 280.741 3.29705C260.227 11.539 253.681 35.7136 260.446 55.0541ZM315.983 57.6906C311.836 62.4167 305.945 64.7236 298.415 64.7236C290.778 64.7236 284.886 62.4153 280.741 57.6906C276.596 52.9659 274.522 47.1417 274.522 39.9993C274.522 32.8569 276.596 27.0327 280.741 22.3066C284.886 17.5805 290.778 15.2735 298.415 15.2735C305.945 15.2735 311.836 17.5819 315.983 22.3066C320.128 27.0313 322.202 32.8554 322.202 39.9993C322.202 47.1417 320.128 52.9659 315.983 57.6906Z" fill="white"/>
</svg>
