<svg width="49" height="42" viewBox="0 0 49 42" fill="none" xmlns="http://www.w3.org/2000/svg">
<path d="M29.4818 38.66C25.0717 38.66 18.4567 34.1023 13.0667 27.4283C5.87985 18.5567 3.26675 9.27836 7.02323 6.26674L9.14647 4.55757C9.63647 4.15072 10.2897 3.90656 10.9432 3.90656C11.76 3.90656 12.495 4.2322 12.985 4.88322L16.9867 9.84804C17.885 10.9874 17.7217 12.6966 16.4967 13.6732C14.1285 15.5451 14.7 20.103 17.64 23.7657C19.6817 26.2888 22.3767 27.835 24.745 27.835C25.725 27.835 26.5417 27.5909 27.2768 27.021C27.7668 26.6142 28.42 26.37 29.0735 26.37C29.8903 26.37 30.6253 26.6957 31.1153 27.3467L35.117 32.3115C35.607 32.8813 35.7703 33.5323 35.6888 34.2648C35.607 34.9973 35.1988 35.6484 34.627 36.0555L32.5038 37.7647C31.6868 38.3342 30.7068 38.6598 29.4818 38.6598V38.66ZM10.8617 5.53424C10.6167 5.53424 10.29 5.61572 10.045 5.77841L8.00323 7.48757C5.38999 9.60359 7.26823 17.661 14.2915 26.37C19.3547 32.6369 25.6434 37.0317 29.4815 37.0317C30.2982 37.0317 30.9515 36.8691 31.4415 36.4619L33.5647 34.7528C33.8097 34.5901 33.9729 34.2644 34.0547 33.9388C34.0547 33.6946 34.0547 33.369 33.8915 33.2063L29.8897 28.2415C29.5629 27.8346 28.8279 27.7531 28.3379 28.16C27.3579 28.8925 26.2147 29.2993 24.8262 29.2993C21.9679 29.2993 18.7829 27.5087 16.4143 24.6602C14.6993 22.6253 13.7193 20.1837 13.4743 17.905C13.2293 15.5448 13.9643 13.51 15.516 12.2891C16.006 11.8823 16.1693 11.1498 15.761 10.7427L11.6781 5.94137C11.5148 5.6972 11.1881 5.53425 10.8616 5.53425L10.8617 5.53424Z" fill="white"/>
<path d="M25.8875 22.0566C25.8057 22.0566 25.7243 22.0566 25.6425 21.9752C25.3157 21.8937 25.0707 21.4868 25.1525 21.1612L25.6425 16.522H22.7025C22.2943 16.522 21.8857 16.1964 21.8857 15.708L21.886 1.22127C21.886 0.814418 22.2128 0.407288 22.7028 0.407288H42.9559C43.3641 0.407288 43.7726 0.732936 43.7726 1.22127V15.7087C43.7726 16.1156 43.4459 16.5227 42.9559 16.5227L29.889 16.5224L26.5407 21.6499C26.3772 21.8941 26.1322 22.0571 25.8872 22.0571L25.8875 22.0566ZM23.4375 14.8942H26.4593C26.7043 14.8942 26.8675 14.9757 27.031 15.1384C27.1943 15.301 27.276 15.5452 27.1943 15.7894L26.9493 18.0683L28.746 15.301C28.9093 15.0569 29.1543 14.9754 29.3993 14.9754H42.0574V2.03455H23.4374L23.4375 14.8942Z" fill="white"/>
</svg>
