<svg width="40" height="40" viewBox="0 0 40 40" fill="none" xmlns="http://www.w3.org/2000/svg">
<circle cx="20" cy="20" r="20" fill="#1F242C"/>
<path d="M11.9553 18.6993H25.1456L20.2326 13.7863C19.9249 13.4803 19.9249 12.9822 20.2326 12.6745C20.5386 12.3668 21.0367 12.3668 21.3444 12.6745L27.5681 18.8982C27.5732 18.9033 27.5766 18.9101 27.5817 18.9152C27.733 19.058 27.8299 19.2603 27.8299 19.4847C27.8299 19.5493 27.8197 19.6105 27.8061 19.6717C27.7738 19.8111 27.7058 19.9437 27.597 20.0525L21.3257 26.3238C21.0163 26.6332 20.5148 26.6332 20.2054 26.3238C19.896 26.0144 19.896 25.5129 20.2054 25.2035L25.1388 20.2701H11.9553C11.5218 20.2701 11.1699 19.9182 11.1699 19.4847C11.1699 19.0512 11.5218 18.6993 11.9553 18.6993Z" fill="white"/>
</svg>
