<svg width="78" height="83" viewBox="0 0 78 83" fill="none" xmlns="http://www.w3.org/2000/svg">
<path d="M1.599 67.985H50.531C50.584 67.985 50.636 67.982 50.688 67.977C50.71 67.975 50.732 67.971 50.754 67.968C50.783 67.964 50.813 67.96 50.841 67.954C50.866 67.949 50.892 67.942 50.917 67.936C50.942 67.93 50.968 67.924 50.992 67.916C51.016 67.908 51.041 67.899 51.065 67.891C51.09 67.882 51.115 67.873 51.139 67.864C51.161 67.854 51.184 67.843 51.207 67.833C51.231 67.821 51.256 67.811 51.28 67.798C51.301 67.786 51.322 67.773 51.343 67.76C51.366 67.746 51.39 67.733 51.412 67.718C51.434 67.703 51.456 67.686 51.478 67.67C51.498 67.655 51.518 67.641 51.537 67.626C51.563 67.605 51.588 67.582 51.612 67.56C51.625 67.548 51.637 67.539 51.65 67.526L60.777 58.556L62.583 63.168L62.434 63.227C61.89 63.44 61.594 64.028 61.747 64.592C61.786 64.738 61.836 64.885 61.892 65.03L67.553 79.486C68.218 81.185 69.87 82.282 71.763 82.283H71.764C72.366 82.283 72.959 82.17 73.528 81.948L74.858 81.427C77.254 80.489 78.471 77.858 77.573 75.563L71.912 61.107C71.855 60.963 71.792 60.823 71.722 60.688C71.451 60.17 70.835 59.938 70.29 60.152L70.141 60.21L68.132 55.081C73.72 50.967 76.098 43.459 73.45 36.697C72.325 33.826 70.445 31.436 68.087 29.715V1.602C68.087 0.717001 67.37 0 66.486 0H17.554C17.533 0 17.514 0.00200217 17.494 0.00300217C17.464 0.00400217 17.433 0.00500323 17.403 0.00800323C17.377 0.0100032 17.35 0.015001 17.324 0.019001C17.299 0.022001 17.273 0.026002 17.248 0.031002C17.221 0.036002 17.193 0.0430031 17.167 0.0500031C17.144 0.0560031 17.119 0.0620002 17.097 0.0690002C17.071 0.0770002 17.044 0.0870012 17.018 0.0950012C16.995 0.104001 16.971 0.112003 16.949 0.120003C16.925 0.130003 16.9 0.142 16.876 0.153C16.854 0.164 16.829 0.174 16.807 0.187C16.784 0.199 16.761 0.213001 16.739 0.227001C16.717 0.240001 16.694 0.253002 16.673 0.267002C16.65 0.283002 16.627 0.300001 16.605 0.317001C16.585 0.332001 16.566 0.345001 16.547 0.360001C16.521 0.381001 16.495 0.405001 16.47 0.429001C16.458 0.440001 16.446 0.450002 16.434 0.461002L0.476991 16.143C0.475991 16.145 0.473993 16.146 0.472993 16.148C0.442993 16.177 0.415002 16.209 0.388002 16.24C0.381002 16.249 0.371991 16.257 0.364991 16.266C0.331991 16.307 0.300997 16.349 0.270997 16.391C0.255997 16.412 0.244989 16.435 0.230989 16.457C0.216989 16.479 0.203003 16.501 0.190003 16.525C0.177003 16.547 0.168007 16.572 0.156007 16.595C0.145007 16.618 0.132987 16.642 0.122987 16.666C0.113987 16.687 0.107007 16.709 0.100007 16.73C0.0890071 16.758 0.0790084 16.785 0.0700084 16.813C0.0640084 16.833 0.0599866 16.853 0.0539866 16.873C0.0449866 16.907 0.0359998 16.941 0.0299998 16.976C0.0199998 17.022 0.0129967 17.07 0.00799665 17.118C0.00699665 17.135 0.00698249 17.15 0.00598249 17.167C0.00298249 17.204 1.04621e-06 17.24 1.04621e-06 17.278C1.04621e-06 17.28 1.04621e-06 17.282 1.04621e-06 17.285V66.385C-0.000998954 67.268 0.715 67.985 1.599 67.985ZM48.929 64.782H3.19998V18.885H18.387V43.603L22.611 40.671L25.851 43.603L29.031 40.549L33.977 43.603V18.885H48.929V30.218C43.758 34.413 41.634 41.632 44.189 48.156C45.212 50.77 46.863 52.984 48.929 54.659V64.782ZM67.265 52.862C66.959 53.11 66.641 53.342 66.311 53.564C65.992 53.779 65.661 53.981 65.32 54.169C65.262 54.2 65.206 54.232 65.148 54.263C64.689 54.508 64.212 54.732 63.715 54.926C63.16 55.144 62.596 55.321 62.025 55.462C61.648 55.556 61.269 55.631 60.886 55.691C60.496 55.752 60.104 55.795 59.709 55.821C59.461 55.838 59.212 55.848 58.962 55.851C58.916 55.851 58.87 55.854 58.824 55.854H58.823C56.408 55.854 54.117 55.222 52.131 54.084C50.941 53.402 49.86 52.538 48.929 51.519C47.832 50.32 46.941 48.906 46.32 47.32C44.392 42.398 45.583 37.012 48.929 33.352C49.842 32.353 50.916 31.482 52.131 30.785C52.699 30.459 53.297 30.17 53.925 29.924C55.497 29.308 57.144 28.996 58.817 28.996C60.984 28.996 63.049 29.505 64.886 30.432C66.059 31.023 67.138 31.785 68.088 32.695C69.472 34.019 70.586 35.653 71.32 37.53C73.505 43.107 71.688 49.279 67.265 52.862ZM68.024 61.075L64.728 62.365L64.716 62.334L62.864 57.607C63.432 57.455 63.995 57.274 64.55 57.057C65.107 56.839 65.643 56.589 66.16 56.316L68.011 61.044L68.024 61.075ZM74.026 79.296L72.695 79.817C72.394 79.935 72.082 79.995 71.766 79.995H71.765C70.821 79.995 70.004 79.468 69.685 78.652L64.325 64.962C64.384 64.949 64.441 64.935 64.498 64.913L69.924 62.788C69.981 62.766 70.032 62.736 70.084 62.706L75.445 76.396C75.883 77.518 75.247 78.818 74.026 79.296ZM52.131 62.565V56.662C53.577 57.339 55.138 57.797 56.768 58.008L52.131 62.565ZM58.817 26.709C56.857 26.709 54.93 27.074 53.09 27.795C52.763 27.923 52.445 28.065 52.131 28.212V17.941L64.886 5.027V27.914C63.006 27.134 60.954 26.709 58.817 26.709ZM49.861 15.683H35.88L48.115 3.204H62.186L49.861 15.683ZM18.212 3.204H32.398L19.729 15.683H5.51401L18.212 3.204Z" fill="#394854"/>
<path d="M21.9839 51.853H5.13983C4.82483 51.853 4.56885 52.109 4.56885 52.425V62.087C4.56885 62.403 4.82483 62.659 5.13983 62.659H21.9839C22.2989 62.659 22.5558 62.403 22.5558 62.087V52.425C22.5558 52.109 22.2989 51.853 21.9839 51.853ZM21.4118 61.515H5.71283V52.997H21.4118V61.515Z" fill="#2A8960"/>
<path d="M7.56302 54.002H6.66504V60.593H7.56302V54.002Z" fill="#2A8960"/>
<path d="M20.366 54.002H19.606V60.593H20.366V54.002Z" fill="#2A8960"/>
<path d="M9.1109 54.002H8.21289V60.593H9.1109V54.002Z" fill="#2A8960"/>
<path d="M12.533 54.002H11.635V60.593H12.533V54.002Z" fill="#2A8960"/>
<path d="M15.5759 54.002H14.8149V60.593H15.5759V54.002Z" fill="#2A8960"/>
<path d="M16.876 54.002H16.115V60.593H16.876V54.002Z" fill="#2A8960"/>
<path d="M14.3869 54.002H13.1289V60.593H14.3869V54.002Z" fill="#2A8960"/>
<path d="M11.0199 54.002H9.56787V60.593H11.0199V54.002Z" fill="#2A8960"/>
<path d="M18.9549 54.002H17.5039V60.593H18.9549V54.002Z" fill="#2A8960"/>
<path d="M64.8862 33.6C63.1462 32.403 61.0482 31.7271 58.8182 31.7271C57.4842 31.7271 56.1722 31.976 54.9212 32.466C53.8892 32.87 52.9542 33.418 52.1322 34.078C51.8612 34.296 51.6022 34.526 51.3552 34.767C51.1072 35.01 50.8712 35.264 50.6492 35.528C49.9282 36.385 49.3512 37.348 48.9302 38.377C47.9232 40.834 47.8192 43.665 48.8612 46.327C48.8832 46.383 48.9082 46.438 48.9302 46.494C49.6382 48.219 50.7492 49.682 52.1322 50.791C53.9422 52.241 56.2142 53.085 58.6532 53.123C58.6892 53.123 58.7262 53.124 58.7622 53.125C58.7832 53.125 58.8032 53.126 58.8242 53.126C59.1732 53.126 59.5182 53.1081 59.8622 53.0741C60.2522 53.0361 60.6372 52.9741 61.0202 52.8941C61.4702 52.7991 61.9162 52.675 62.3532 52.521C62.4772 52.4781 62.5992 52.434 62.7212 52.386C63.2802 52.168 63.8112 51.9041 64.3162 51.6031C64.5372 51.472 64.7532 51.333 64.9622 51.1861C65.0722 51.1091 65.1802 51.029 65.2872 50.948C65.6092 50.704 65.9182 50.445 66.2102 50.166C66.5222 49.869 66.8142 49.551 67.0872 49.217C67.4582 48.763 67.7942 48.278 68.0892 47.763C68.2832 47.424 68.4632 47.074 68.6212 46.71C69.7662 44.092 69.8222 41.185 68.7802 38.524C68.5832 38.02 68.3512 37.539 68.0892 37.081C67.2822 35.674 66.1832 34.491 64.8862 33.6ZM64.8862 36.595C65.6312 37.375 66.2372 38.305 66.6502 39.36C67.4692 41.451 67.4242 43.736 66.5252 45.795C66.1212 46.719 65.5652 47.547 64.8862 48.254C64.7962 48.347 64.7052 48.438 64.6132 48.526C63.8352 49.264 62.9152 49.8531 61.8862 50.2551C61.7632 50.3031 61.6392 50.349 61.5152 50.391C60.6432 50.687 59.7402 50.837 58.8232 50.837C58.7872 50.837 58.7532 50.834 58.7172 50.833C56.0702 50.801 53.6722 49.558 52.1322 47.523C51.6702 46.912 51.2812 46.234 50.9912 45.4921C49.8842 42.6641 50.4192 39.593 52.1322 37.334C53.0352 36.144 54.2652 35.18 55.7552 34.596C56.7402 34.21 57.7712 34.014 58.8182 34.014C61.1722 34.015 63.3362 34.974 64.8862 36.595Z" fill="#2A8960"/>
</svg>
