<svg width="70" height="77" viewBox="0 0 70 77" fill="none" xmlns="http://www.w3.org/2000/svg">
<path fill-rule="evenodd" clip-rule="evenodd" d="M56.2763 0C56.9564 0.398804 57.1475 1.0137 57.1466 1.77079C57.1357 10.8686 57.1399 19.9666 57.1379 29.0644C57.1377 29.2836 57.1121 29.5025 57.096 29.7564C56.2807 29.7564 55.5123 29.7564 54.6502 29.7564C54.6502 20.6949 54.6502 11.6392 54.6502 2.53766C38.8823 2.53766 23.2073 2.53766 7.48289 2.53766C7.48289 3.33728 7.48289 4.1012 7.48289 4.9651C7.78963 4.9651 8.08039 4.9651 8.37115 4.9651C19.023 4.9651 29.6748 4.97162 40.3267 4.95221C41.142 4.95082 41.7468 5.19687 42.3191 5.77652C45.3301 8.82631 48.3624 11.8554 51.4098 14.8687C51.9513 15.4042 52.1846 15.9813 52.1798 16.7338C52.1588 19.9919 52.1717 23.2503 52.1694 26.5084C52.1692 26.7528 52.1466 26.9971 52.132 27.2879C51.3184 27.2879 50.5541 27.2879 49.693 27.2879C49.693 24.0228 49.693 20.758 49.693 17.4398C49.3337 17.4241 49.0665 17.4027 48.7992 17.4024C46.4182 17.3997 44.0373 17.4019 41.6563 17.4004C40.096 17.3993 39.736 17.0444 39.7354 15.5111C39.7346 13.1301 39.7352 10.7491 39.7352 8.36805C39.7352 8.09762 39.7352 7.82751 39.7352 7.5099C27.3001 7.5099 14.9335 7.5099 2.51639 7.5099C2.51639 29.8292 2.51639 52.1199 2.51639 74.5103C16.172 74.5103 29.7909 74.5103 43.4929 74.5103C43.4929 75.4063 43.4929 76.203 43.4929 77C29.3061 77 15.1193 77 0.93251 77C0.133661 76.6603 -0.000464505 76.0088 1.20586e-06 75.2179C0.0113335 52.3897 0.00885026 29.5615 0.00978168 6.73309C0.00978168 5.33627 0.387007 4.96758 1.80137 4.96556C2.84301 4.96401 3.88465 4.96525 4.97597 4.96525C4.97597 3.78328 5.00531 2.70857 4.96603 1.6362C4.93809 0.872276 5.20106 0.327239 5.89559 0.000310303C22.6891 -1.70563e-07 39.4827 0 56.2763 0ZM42.2738 14.8414C44.1135 14.8414 45.9174 14.8414 47.571 14.8414C45.827 13.0978 44.0357 11.3073 42.2738 9.54583C42.2738 11.2348 42.2738 13.023 42.2738 14.8414Z" fill="#464E5A"/>
<path fill-rule="evenodd" clip-rule="evenodd" d="M50.5615 77C46.9139 74.9099 43.2729 72.8083 39.6167 70.7336C36.8988 69.1911 34.8161 67.0746 33.5115 64.2122C32.6327 62.2842 32.2834 60.2532 32.2816 58.1532C32.2758 51.7868 32.2777 45.4203 32.2808 39.0541C32.2814 37.6271 32.64 37.2513 34.0607 37.2768C37.8383 37.3449 41.4309 36.6656 44.7333 34.7405C46.6365 33.631 48.2649 32.2024 49.717 30.5545C50.5678 29.589 51.2897 29.5953 52.144 30.5825C54.8311 33.6878 58.119 35.8587 62.1482 36.7067C63.9694 37.09 65.8674 37.1464 67.7363 37.2556C69.195 37.3412 69.5313 37.6113 69.5313 39.0963C69.5322 45.4377 69.5339 51.779 69.531 58.1204C69.5283 63.7561 67.0447 67.9508 62.1746 70.7533C58.5546 72.8364 54.9337 74.918 51.3133 77.0002C51.0629 77 50.8122 77 50.5615 77ZM34.7706 39.7293C34.7706 40.9531 34.7706 42.0545 34.7706 43.1556C34.7706 48.2165 34.7498 53.2773 34.7771 58.3381C34.7995 62.5 36.4807 65.8506 40.0412 68.0486C43.4892 70.1772 47.0516 72.1211 50.5817 74.1142C50.7869 74.2303 51.201 74.144 51.4384 74.0105C54.6434 72.2048 57.8356 70.3756 61.0286 68.5489C65.0587 66.2435 67.0571 62.7485 67.0706 58.1245C67.0877 52.2869 67.0748 46.4496 67.0748 40.612C67.0748 40.3444 67.0748 40.0772 67.0748 39.7314C63.9766 39.7696 61.0667 39.2577 58.2847 38.0918C55.4749 36.914 53.0414 35.1943 50.9202 32.93C48.8138 35.1598 46.4087 36.8846 43.6275 38.0602C40.8263 39.2444 37.8934 39.7782 34.7706 39.7293Z" fill="#2A8960"/>
<path fill-rule="evenodd" clip-rule="evenodd" d="M5.00977 22.3313C5.00977 21.4899 5.00977 20.7209 5.00977 19.907C15.7523 19.907 26.4607 19.907 37.207 19.907C37.207 20.7223 37.207 21.5081 37.207 22.3313C26.464 22.3313 15.7758 22.3313 5.00977 22.3313Z" fill="#464E5A"/>
<path fill-rule="evenodd" clip-rule="evenodd" d="M5.00806 27.2986C5.00806 26.4611 5.00806 25.692 5.00806 24.8755C15.7489 24.8755 26.4576 24.8755 37.2089 24.8755C37.2089 25.6875 37.2089 26.474 37.2089 27.2986C26.4679 27.2986 15.7793 27.2986 5.00806 27.2986Z" fill="#464E5A"/>
<path fill-rule="evenodd" clip-rule="evenodd" d="M5.00903 32.2688C5.00903 31.4267 5.00903 30.6578 5.00903 29.8416C15.7508 29.8416 26.4594 29.8416 37.2084 29.8416C37.2084 30.6598 37.2084 31.4465 37.2084 32.2688C26.4663 32.2688 15.7769 32.2688 5.00903 32.2688Z" fill="#464E5A"/>
<path fill-rule="evenodd" clip-rule="evenodd" d="M5.00977 37.2111C5.00977 36.3938 5.00977 35.6247 5.00977 34.8083C13.2719 34.8083 21.5 34.8083 29.7668 34.8083C29.7668 35.6125 29.7668 36.3811 29.7668 37.2111C21.5411 37.2111 13.3137 37.2111 5.00977 37.2111Z" fill="#464E5A"/>
<path fill-rule="evenodd" clip-rule="evenodd" d="M29.7672 39.7827C29.7672 40.6177 29.7672 41.3866 29.7672 42.1967C21.5203 42.1967 13.3113 42.1967 5.03906 42.1967C5.03906 41.4105 5.03906 40.6249 5.03906 39.7827C13.2551 39.7827 21.4835 39.7827 29.7672 39.7827Z" fill="#464E5A"/>
<path fill-rule="evenodd" clip-rule="evenodd" d="M29.764 44.7461C29.764 45.5423 29.764 46.3103 29.764 47.1422C21.5457 47.1422 13.3189 47.1422 5.03394 47.1422C5.03394 46.3693 5.03394 45.5839 5.03394 44.7461C13.2655 44.7461 21.4939 44.7461 29.764 44.7461Z" fill="#464E5A"/>
<path fill-rule="evenodd" clip-rule="evenodd" d="M29.7668 59.6545C29.7668 60.4917 29.7668 61.2597 29.7668 62.0651C21.5191 62.0651 13.31 62.0651 5.03833 62.0651C5.03833 61.283 5.03833 60.4972 5.03833 59.6545C13.2561 59.6545 21.4843 59.6545 29.7668 59.6545Z" fill="#464E5A"/>
<path fill-rule="evenodd" clip-rule="evenodd" d="M4.99829 67.0098C4.99829 66.2008 4.99829 65.452 4.99829 64.6357C13.244 64.6357 21.4677 64.6357 29.7485 64.6357C29.7485 65.4098 29.7485 66.1929 29.7485 67.0098C21.4997 67.0098 13.2539 67.0098 4.99829 67.0098Z" fill="#464E5A"/>
<path fill-rule="evenodd" clip-rule="evenodd" d="M5.00757 71.9783C5.00757 71.1714 5.00757 70.403 5.00757 69.5864C13.2683 69.5864 21.4975 69.5864 29.7662 69.5864C29.7662 70.3879 29.7662 71.1548 29.7662 71.9783C21.5417 71.9783 13.3149 71.9783 5.00757 71.9783Z" fill="#464E5A"/>
<path fill-rule="evenodd" clip-rule="evenodd" d="M21.1199 12.3629C21.1199 11.5447 21.1199 10.7972 21.1199 9.98999C26.4832 9.98999 31.8253 9.98999 37.2145 9.98999C37.2145 10.76 37.2145 11.5267 37.2145 12.3629C31.8658 12.3629 26.5268 12.3629 21.1199 12.3629Z" fill="#464E5A"/>
<path fill-rule="evenodd" clip-rule="evenodd" d="M6.23364 12.4299C6.23364 11.5511 6.23364 10.7851 6.23364 9.9751C7.04817 9.9751 7.83025 9.9751 8.69974 9.9751C8.69974 10.6724 8.72768 11.3415 8.67862 12.0051C8.66745 12.1566 8.39873 12.3983 8.23465 12.4105C7.59383 12.458 6.94742 12.4299 6.23364 12.4299Z" fill="#464E5A"/>
<path fill-rule="evenodd" clip-rule="evenodd" d="M11.207 12.4293C11.207 11.5795 11.207 10.8154 11.207 9.99048C11.9852 9.99048 12.7695 9.99048 13.6678 9.99048C13.6678 10.6594 13.6905 11.3504 13.6489 12.0374C13.6405 12.1756 13.3946 12.4025 13.2475 12.4116C12.5821 12.4522 11.9132 12.4293 11.207 12.4293Z" fill="#464E5A"/>
<path fill-rule="evenodd" clip-rule="evenodd" d="M16.1687 9.95898C16.9992 9.95898 17.7655 9.95898 18.5857 9.95898C18.5857 10.765 18.5857 11.5464 18.5857 12.3799C17.7697 12.3799 16.9874 12.3799 16.1687 12.3799C16.1687 11.5703 16.1687 10.806 16.1687 9.95898Z" fill="#464E5A"/>
<path fill-rule="evenodd" clip-rule="evenodd" d="M42.2737 14.8413C42.2737 13.023 42.2737 11.2346 42.2737 9.54565C44.0356 11.3071 45.8269 13.0976 47.5708 14.8413C45.9171 14.8413 44.1132 14.8413 42.2737 14.8413Z" fill="white"/>
<path fill-rule="evenodd" clip-rule="evenodd" d="M50.9212 40.999C58.4767 41.0093 64.592 47.1464 64.5613 54.6881C64.5307 62.2153 58.4305 68.2939 50.9097 68.2908C43.3629 68.288 37.2126 62.115 37.2709 54.6017C37.3294 47.0441 43.4059 40.9889 50.9212 40.999ZM50.9285 65.831C57.0712 65.8121 62.1531 60.7082 62.1004 54.6108C62.0474 48.4377 57.0012 43.4344 50.8627 43.4682C44.738 43.5021 39.7415 48.5195 39.7383 54.6395C39.7348 60.7793 44.8047 65.85 50.9285 65.831Z" fill="#2A8960"/>
<path fill-rule="evenodd" clip-rule="evenodd" d="M46.3372 58.0268C46.9471 57.4315 47.5162 56.8762 48.2107 56.1982C48.8624 56.9338 49.5229 57.6794 50.3004 58.557C51.38 54.9716 52.4052 51.5682 53.4534 48.0876C54.2504 48.325 55.0037 48.5493 55.8229 48.793C55.391 50.243 54.9739 51.6494 54.5528 53.0548C53.7783 55.6412 53.0033 58.2271 52.2245 60.8121C51.784 62.2741 50.8361 62.5112 49.7417 61.4286C48.6047 60.3035 47.4785 59.1681 46.3372 58.0268Z" fill="#2A8960"/>
</svg>
