<svg width="24" height="24" viewBox="0 0 24 24" fill="none" xmlns="http://www.w3.org/2000/svg">
<ellipse cx="12" cy="12" rx="12" ry="12" transform="rotate(90 12 12)" fill="#D1D1D1"/>
<g clip-path="url(#clip0_837_1058)">
<path d="M12.4709 7.56198L12.4709 15.321L15.3609 12.431C15.5409 12.25 15.8339 12.25 16.0149 12.431C16.1959 12.611 16.1959 12.904 16.0149 13.085L12.3539 16.746C12.3509 16.749 12.3469 16.751 12.3439 16.754C12.2599 16.843 12.1409 16.9 12.0089 16.9C11.9709 16.9 11.9349 16.894 11.8989 16.886C11.8169 16.867 11.7389 16.827 11.6749 16.763L7.98589 13.074C7.80389 12.892 7.80389 12.597 7.98589 12.415C8.16789 12.233 8.46289 12.233 8.64489 12.415L11.5469 15.317L11.5469 7.56198C11.5469 7.30698 11.7539 7.09998 12.0089 7.09998C12.2639 7.09998 12.4709 7.30698 12.4709 7.56198Z" fill="white"/>
</g>
<defs>
<clipPath id="clip0_837_1058">
<rect width="10" height="10" fill="white" transform="translate(17 7) rotate(90)"/>
</clipPath>
</defs>
</svg>
