<svg width="81" height="42" viewBox="0 0 81 42" fill="none" xmlns="http://www.w3.org/2000/svg">
<path fill-rule="evenodd" clip-rule="evenodd" d="M40.8489 13.5722C42.0004 14.9257 43.1207 16.299 44.2143 17.6403C45.7606 19.5367 47.2563 21.3702 48.7026 22.9784C52.313 26.9938 56.6562 31.035 61.4308 33.03C66.1223 34.9905 71.2622 34.9643 76.5758 30.938L78.8143 29.242L77.422 31.6794C75.0899 35.7628 71.4697 38.5503 67.3598 39.9089C63.1424 41.3029 58.4095 41.1899 54.0293 39.426C51.518 38.4154 49.0843 36.7316 46.8383 34.7796C44.6138 32.8461 42.5706 30.6452 40.8228 28.5785L40.6756 28.4051L40.6743 28.4228L39.9442 27.5662L39.9404 27.6236C38.7889 26.27 37.6691 24.8967 36.575 23.5554C35.0287 21.6591 33.533 19.8256 32.0867 18.2173C28.4763 14.2019 24.1331 10.1608 19.3581 8.16575C14.6666 6.20571 9.52711 6.23144 4.21345 10.2574L1.97461 11.9534L3.36693 9.51546C5.69898 5.43215 9.31959 2.64457 13.4295 1.28642C17.6469 -0.108003 22.3798 0.00503442 26.76 1.76894C29.2713 2.77954 31.705 4.46331 33.951 6.41533C36.1755 8.3488 38.2187 10.5501 39.9665 12.6164L40.1137 12.7898L40.115 12.7721L40.8451 13.6287L40.8489 13.5722Z" fill="#394854"/>
<path fill-rule="evenodd" clip-rule="evenodd" d="M6.73259 11.6362C10.581 9.31725 16.0098 8.37076 22.7529 12.0601C9.60453 11.546 7.48464 23.2838 12.3225 28.6342C15.8503 32.5357 23.0797 33.1591 32.432 22.5904C34.5207 25.0861 36.5634 27.5966 38.6706 30.0708C34.4047 34.8488 29.5461 38.9021 23.3543 40.4758C10.4886 43.7464 1.96051 35.9665 0.297828 27.198C-0.801768 21.401 1.09965 15.0308 6.73259 11.6362Z" fill="#394854"/>
<path fill-rule="evenodd" clip-rule="evenodd" d="M74.0538 29.6022C70.2055 31.9212 64.7766 32.8677 58.0336 29.1783C71.1819 29.6925 73.3018 17.9546 68.4639 12.6043C64.9361 8.70276 57.7062 8.07936 48.3544 18.648C46.2662 16.1523 44.223 13.6419 42.1162 11.1677C46.3822 6.38969 51.2407 2.33633 57.4325 0.762647C70.2987 -2.50788 78.8263 5.27196 80.489 14.0405C81.5882 19.8375 79.6872 26.2077 74.0538 29.6022Z" fill="#394854"/>
</svg>
