<svg width="107" height="76" viewBox="0 0 107 76" fill="none" xmlns="http://www.w3.org/2000/svg">
<path d="M38 61.9996H68L68.4825 56.4996M17 61.9996H4L4.48246 56.4996M4.48246 56.4996H20.4825M4.48246 56.4996L5.66667 42.9996M68.4825 56.4996H36.4825M68.4825 56.4996L69.6667 42.9996M5.66667 42.9996L9 4.99962H73L69.6667 42.9996M5.66667 42.9996H69.6667" stroke="#7D92A4" stroke-width="2"/>
<path d="M104 41.3431L101.023 62H95M104 41.3431L94.5736 25.7451M104 41.3431H76.7907V25.7451H94.5736M94.5736 25.7451L89.969 19H71.969L68 62H73.8605" stroke="#7D92A4" stroke-width="2"/>
<ellipse cx="27.7969" cy="63.4231" rx="10.5469" ry="10.5769" stroke="#7D92A4" stroke-width="2"/>
<ellipse cx="85.1719" cy="63.4231" rx="10.5469" ry="10.5769" stroke="#7D92A4" stroke-width="2"/>
<circle cx="27.5" cy="63.4995" r="4.5" stroke="#7D92A4" stroke-width="2"/>
<circle cx="85.5" cy="63.4995" r="4.5" stroke="#7D92A4" stroke-width="2"/>
<circle cx="17.0002" cy="17" r="17" fill="#298860"/>
<line x1="17.3464" y1="4.37113e-08" x2="17.3464" y2="3.26923" stroke="white" stroke-width="2"/>
<path d="M17.0001 9.15384L17.0001 17.6538L24.1924 17.6538" stroke="white" stroke-width="2"/>
<line x1="17.3464" y1="30.7308" x2="17.3464" y2="34.0001" stroke="white" stroke-width="2"/>
<line x1="3.26929" y1="18" x2="5.62668e-05" y2="18" stroke="white" stroke-width="2"/>
<line x1="34" y1="18" x2="30.7308" y2="18" stroke="white" stroke-width="2"/>
</svg>
