<svg width="16" height="16" viewBox="0 0 16 16" fill="none" xmlns="http://www.w3.org/2000/svg">
<path d="M12.2667 1.22667C11.0133 0.453334 9.57333 0 8 0V1.22667H12.2667Z" fill="#ED4C5C"/>
<path d="M8 2.45335H13.76C13.3067 2.00002 12.8 1.57335 12.2667 1.22668H8V2.45335Z" fill="white"/>
<path d="M8 3.68001H14.7467C14.4533 3.22667 14.1333 2.82667 13.7867 2.45334H8V3.68001Z" fill="#ED4C5C"/>
<path d="M8 4.90666H15.3867C15.2 4.47999 14.9867 4.05333 14.7467 3.67999H8V4.90666Z" fill="white"/>
<path d="M8 6.13335H15.7867C15.68 5.70668 15.5467 5.30668 15.3867 4.90668H8V6.13335Z" fill="#ED4C5C"/>
<path d="M8 7.38667H15.9733C15.9467 6.96 15.8667 6.56 15.7867 6.16H8V7.38667" fill="white"/>
<path d="M15.9733 7.38669H8V8.00002H0C0 8.21336 -2.58287e-08 8.40002 0.0266666 8.61336H15.9733C16 8.40002 16 8.21336 16 8.00002C16 7.78669 16 7.57336 15.9733 7.38669" fill="#ED4C5C"/>
<path d="M0.213278 9.83998H15.7866C15.8933 9.43998 15.9466 9.03998 15.9733 8.61331H0.0266113C0.053278 9.01331 0.133278 9.43998 0.213278 9.83998Z" fill="white"/>
<path d="M0.613379 11.0667H15.3867C15.5467 10.6667 15.68 10.2667 15.7867 9.84H0.213379C0.320046 10.2667 0.453379 10.6667 0.613379 11.0667Z" fill="#ED4C5C"/>
<path d="M1.25328 12.2933H14.7466C14.9866 11.8933 15.1999 11.4933 15.3866 11.0667H0.613281C0.799948 11.4933 1.01328 11.8933 1.25328 12.2933" fill="white"/>
<path d="M2.21342 13.52H13.7868C14.1334 13.1467 14.4801 12.72 14.7468 12.2934H1.25342C1.52008 12.7467 1.86675 13.1467 2.21342 13.52Z" fill="#ED4C5C"/>
<path d="M3.70671 14.7467H12.2934C12.8534 14.4 13.3334 13.9734 13.7867 13.52H2.21338C2.66671 14 3.17338 14.4 3.70671 14.7467Z" fill="white"/>
<path d="M7.99988 16C9.57321 16 11.0399 15.5467 12.2932 14.7467H3.70654C4.95988 15.5467 6.42654 16 7.99988 16Z" fill="#ED4C5C"/>
<path d="M3.73333 1.22667C3.17333 1.57333 2.66667 2 2.21333 2.45334C1.84 2.82667 1.52 3.25334 1.25333 3.68C1.01333 4.08 0.773333 4.48 0.613333 4.90667C0.453333 5.30667 0.32 5.70667 0.213333 6.13334C0.106667 6.53334 0.0533333 6.93334 0.0266666 7.36001C-2.58287e-08 7.57334 0 7.78667 0 8.00001H8V0C6.42667 0 4.98667 0.453334 3.73333 1.22667Z" fill="#428BC1"/>
<path d="M6.13319 0.266663L6.26652 0.666663H6.66652L6.34652 0.93333L6.45319 1.33333L6.13319 1.09333L5.81319 1.33333L5.91985 0.93333L5.59985 0.666663H5.99985L6.13319 0.266663Z" fill="white"/>
<path d="M7.19984 1.86667L7.33317 2.26667H7.73317L7.41317 2.53334L7.51984 2.93334L7.19984 2.69334L6.87984 2.93334L6.9865 2.53334L6.6665 2.26667H7.0665L7.19984 1.86667Z" fill="white"/>
<path d="M5.06654 1.86667L5.19987 2.26667H5.59987L5.27987 2.53334L5.38654 2.93334L5.06654 2.69334L4.74654 2.93334L4.8532 2.53334L4.5332 2.26667H4.9332L5.06654 1.86667Z" fill="white"/>
<path d="M6.13343 3.46667L6.26676 3.86668H6.66676L6.34676 4.13334L6.45343 4.53334L6.13343 4.29334L5.81343 4.53334L5.9201 4.13334L5.6001 3.86668H6.0001L6.13343 3.46667Z" fill="white"/>
<path d="M3.99989 3.46667L4.13322 3.86668H4.53322L4.21322 4.13334L4.31989 4.53334L3.99989 4.29334L3.67989 4.53334L3.78655 4.13334L3.46655 3.86668H3.86655L3.99989 3.46667Z" fill="white"/>
<path d="M1.86659 3.46667L1.99992 3.86668H2.39992L2.07992 4.13334L2.18659 4.53334L1.86659 4.29334L1.54659 4.53334L1.65325 4.13334L1.33325 3.86668H1.73325L1.86659 3.46667Z" fill="white"/>
<path d="M7.19984 5.06665L7.33317 5.46665H7.73317L7.41317 5.73332L7.51984 6.13332L7.19984 5.89332L6.87984 6.13332L6.9865 5.73332L6.6665 5.46665H7.0665L7.19984 5.06665Z" fill="white"/>
<path d="M5.06654 5.06665L5.19987 5.46665H5.59987L5.27987 5.73332L5.38654 6.13332L5.06654 5.89332L4.74654 6.13332L4.8532 5.73332L4.5332 5.46665H4.9332L5.06654 5.06665Z" fill="white"/>
<path d="M2.93324 5.06665L3.06657 5.46665H3.46657L3.14657 5.73332L3.25324 6.13332L2.93324 5.89332L2.61324 6.13332L2.7199 5.73332L2.3999 5.46665H2.7999L2.93324 5.06665Z" fill="white"/>
<path d="M6.13343 6.66666L6.26676 7.06666H6.66676L6.34676 7.33332L6.45343 7.73332L6.13343 7.49332L5.81343 7.73332L5.9201 7.33332L5.6001 7.06666H6.0001L6.13343 6.66666Z" fill="white"/>
<path d="M3.99989 6.66666L4.13322 7.06666H4.53322L4.21322 7.33332L4.31989 7.73332L3.99989 7.49332L3.67989 7.73332L3.78655 7.33332L3.46655 7.06666H3.86655L3.99989 6.66666Z" fill="white"/>
<path d="M1.86659 6.66666L1.99992 7.06666H2.39992L2.07992 7.33332L2.18659 7.73332L1.86659 7.49332L1.54659 7.73332L1.65325 7.33332L1.33325 7.06666H1.73325L1.86659 6.66666Z" fill="white"/>
<path d="M2.61342 2.93334L2.93342 2.69334L3.25342 2.93334L3.12009 2.53334L3.44009 2.26667H3.04009L2.93342 1.86667L2.80009 2.26667H2.42676L2.74676 2.50667L2.61342 2.93334" fill="white"/>
<path d="M0.479958 6.13332L0.799958 5.89332L1.11996 6.13332L0.986624 5.73332L1.30662 5.46665H0.933291L0.799958 5.06665L0.666624 5.46665H0.399958C0.399958 5.49332 0.373291 5.51998 0.373291 5.54665L0.586624 5.70665L0.479958 6.13332" fill="white"/>
</svg>
