<svg width="540" height="276" viewBox="0 0 540 276" fill="none" xmlns="http://www.w3.org/2000/svg">
<g opacity="0.15">
<path fill-rule="evenodd" clip-rule="evenodd" d="M272.944 90.6854C280.638 99.7293 288.123 108.906 295.431 117.868C305.762 130.539 315.756 142.79 325.42 153.536C349.544 180.366 378.564 207.368 410.467 220.698C441.815 233.798 476.159 233.623 511.663 206.72L526.62 195.387L517.317 211.674C501.734 238.958 477.545 257.584 450.084 266.662C421.904 275.976 390.28 275.221 361.012 263.435C344.232 256.682 327.97 245.432 312.963 232.389C298.1 219.47 284.448 204.764 272.769 190.954L271.785 189.796L271.777 189.914L266.898 184.19L266.873 184.574C259.179 175.53 251.697 166.353 244.386 157.391C234.054 144.72 224.061 132.469 214.397 121.723C190.272 94.8931 161.252 67.8912 129.347 54.5607C97.9988 41.4642 63.658 41.6361 28.1533 68.5366L13.1938 79.8689L22.497 63.5792C38.0793 36.2954 62.2714 17.6694 89.7327 8.59454C117.913 -0.722695 149.537 0.0325963 178.805 11.8186C195.585 18.5712 211.846 29.8218 226.853 42.8648C241.717 55.7838 255.369 70.4924 267.048 84.2992L268.031 85.4575L268.04 85.3391L272.918 91.0631L272.944 90.6854Z" fill="url(#paint0_linear_398_533)"/>
<path fill-rule="evenodd" clip-rule="evenodd" d="M44.9858 77.7495C70.6997 62.2546 106.974 55.9303 152.03 80.5819C64.1754 77.1464 50.0107 155.576 82.3364 191.326C105.909 217.395 154.214 221.561 216.704 150.943C230.66 167.619 244.309 184.393 258.389 200.925C229.885 232.851 197.421 259.934 156.049 270.449C70.0825 292.302 13.0997 240.319 1.99002 181.73C-5.35724 142.995 7.34761 100.431 44.9858 77.7495Z" fill="#394854"/>
<path fill-rule="evenodd" clip-rule="evenodd" d="M494.819 197.794C469.105 213.289 432.831 219.613 387.775 194.962C475.63 198.397 489.794 119.967 457.468 84.2175C433.896 58.1484 385.588 53.9829 323.101 124.601C309.148 107.925 295.496 91.1504 281.419 74.6184C309.923 42.6929 342.387 15.6092 383.759 5.09421C469.728 -16.7587 526.708 35.2245 537.818 93.8137C545.162 132.548 532.46 175.113 494.819 197.794Z" fill="#394854"/>
</g>
<defs>
<linearGradient id="paint0_linear_398_533" x1="13.1938" y1="137.627" x2="526.62" y2="137.627" gradientUnits="userSpaceOnUse">
<stop stop-color="#298860"/>
<stop offset="1" stop-color="#65D521"/>
</linearGradient>
</defs>
</svg>
