<svg width="49" height="42" viewBox="0 0 49 42" fill="none" xmlns="http://www.w3.org/2000/svg">
<path d="M41.0776 31.9042H5.30762V30.2765H39.3626V6.59236L42.7111 4.1507L43.6911 5.45301L41.0776 7.40634V31.9042Z" fill="white"/>
<path d="M34.7073 36.2992C33.0741 36.2992 31.6855 34.9157 31.6855 33.2877C31.6855 31.66 33.0738 30.2762 34.7073 30.2762C36.3405 30.2762 37.7291 31.6598 37.7291 33.2877C37.7291 34.9157 36.4223 36.2992 34.7073 36.2992ZM34.7073 31.9042C33.9723 31.9042 33.3191 32.474 33.3191 33.2877C33.3191 34.0202 33.8908 34.6712 34.7073 34.6712C35.4423 34.6712 36.0955 34.1014 36.0955 33.2877C36.0958 32.5555 35.4423 31.9042 34.7073 31.9042Z" fill="white"/>
<path d="M10.7796 36.2992C9.14633 36.2992 7.75781 34.9157 7.75781 33.2877C7.75781 31.66 9.14605 30.2762 10.7796 30.2762C12.4128 30.2762 13.8013 31.6598 13.8013 33.2877C13.8013 34.9157 12.4946 36.2992 10.7796 36.2992ZM10.7796 31.9042C10.0446 31.9042 9.39133 32.474 9.39133 33.2877C9.39133 34.0202 9.96309 34.6712 10.7796 34.6712C11.5963 34.6712 12.1678 34.1014 12.1678 33.2877C12.1678 32.5555 11.5963 31.9042 10.7796 31.9042Z" fill="white"/>
<path d="M35.525 26.6958H22.7031V14.0801H35.525V26.6958ZM24.3369 25.0679H33.8919V15.7086H24.3369V25.0679Z" fill="white"/>
<path d="M33.9731 12.0458H24.3369V2.76746H34.055V12.0458H33.9731ZM25.97 10.4178H32.34V4.39514H25.97V10.4178Z" fill="white"/>
<path d="M20.5787 26.6958H7.75684V14.0801H20.5787V26.6958ZM9.47184 25.0679H19.0268V15.7086H9.47184V25.0679Z" fill="white"/>
</svg>
