<svg width="50" height="42" viewBox="0 0 50 42" fill="none" xmlns="http://www.w3.org/2000/svg">
<path d="M27.543 35.7299C24.4733 35.7299 21.9844 33.2882 21.9844 30.2768C21.9844 27.2653 24.4733 24.8236 27.543 24.8236C30.6127 24.8236 33.1016 27.2653 33.1016 30.2768C33.1847 33.2882 30.6127 35.7299 27.543 35.7299ZM27.543 26.4516C25.386 26.4516 23.6438 28.1607 23.6438 30.2768C23.6438 32.3928 25.386 34.1019 27.543 34.1019C29.6999 34.1019 31.4422 32.3928 31.4422 30.2768C31.5252 28.1607 29.7002 26.4516 27.543 26.4516Z" fill="white"/>
<path d="M10.9512 35.7299C7.88147 35.7299 5.39258 33.2882 5.39258 30.2768C5.39258 27.2653 7.88147 24.8236 10.9512 24.8236C14.0209 24.8236 16.5098 27.2653 16.5098 30.2768C16.5098 33.2882 14.0209 35.7299 10.9512 35.7299ZM10.9512 26.4516C8.79425 26.4516 7.05203 28.1607 7.05203 30.2768C7.05203 32.3928 8.79425 34.1019 10.9512 34.1019C13.1081 34.1019 14.8504 32.3928 14.8504 30.2768C14.8504 28.1607 13.1081 26.4516 10.9512 26.4516Z" fill="white"/>
<path d="M44.3848 28.2417H32.5206C31.525 28.2417 30.6953 27.4277 30.6953 26.451L30.6956 7.24347H32.3548V26.3701C32.3548 26.4516 32.4378 26.5328 32.5206 26.5328H44.3841L44.3848 28.2417Z" fill="white"/>
<path d="M7.88182 27.6724H6.22266V22.5449C6.22266 20.5916 7.79905 19.0451 9.79016 19.0451H10.4538V3.33682H19.0817L32.356 25.2309V27.4284H30.6968V25.6377L18.1692 4.9652H12.1128V20.7544H9.70696C8.62834 20.7544 7.7989 21.5684 7.7989 22.6263V27.6726L7.88182 27.6724Z" fill="white"/>
<path d="M15.5137 28.405H22.9803V30.0327H15.5137V28.405Z" fill="white"/>
<path d="M23.8104 17.2542H13.1914V6.59247H17.5883L23.8104 17.2542ZM14.8504 15.6265H20.9068L16.5926 8.21987H14.7674L14.7676 15.6265H14.8504Z" fill="white"/>
<path d="M44.1365 25.3933H33.7656V12.2899H38.2456V14.3247H39.6559V12.2899H44.1359L44.1365 25.3933ZM35.4254 23.7656H42.4773L42.477 13.9173H41.3156V15.9521H36.5868V13.9173H35.4254L35.4254 23.7656Z" fill="white"/>
</svg>
