<svg width="43" height="45" viewBox="0 0 43 45" fill="none" xmlns="http://www.w3.org/2000/svg">
<path d="M14.246 1.04741C9.48586 3.46886 6.01366 6.7453 3.55081 11.1144C1.94341 13.989 1.00561 17.863 0.531758 23.6847C0.459758 24.5604 0.397658 28.9294 0.367058 34.8438L0.315308 44.5498H9.23836H18.1614V34.9675V25.3852H13.8234H9.47506L9.54706 24.0766C9.76351 20.1612 10.5051 16.6372 11.6283 14.1852C12.9473 11.2899 15.5645 8.73431 18.7586 7.22996C19.4799 6.88976 19.5933 6.79706 19.511 6.65306C19.0371 5.82866 15.6162 0.511906 15.5339 0.481308C15.4722 0.460155 14.8953 0.717556 14.246 1.04741Z" fill="#7D92A4"/>
<path d="M37.1307 1.17115C33.0505 3.30415 30.0004 5.99335 27.651 9.5173C25.8996 12.1552 24.9514 14.7 24.2922 18.4917C23.6329 22.3554 23.5195 24.7255 23.5195 35.503V44.5498H32.3809H41.2423V34.9675V25.3852H36.9768C34.6273 25.3852 32.6802 25.3542 32.6595 25.3029C32.5875 25.1895 32.7729 22.5003 32.9479 21.1093C33.8443 14.1334 36.3378 10.0947 41.3661 7.5085C42.0978 7.12735 42.685 6.80785 42.685 6.7768C42.685 6.6328 38.7183 0.450249 38.6251 0.450249C38.563 0.449799 37.893 0.779652 37.1307 1.17115Z" fill="#7D92A4"/>
</svg>
