<svg width="17" height="15" viewBox="0 0 17 15" fill="none" xmlns="http://www.w3.org/2000/svg">
<path d="M0.955322 6.69942H14.1456L9.23262 1.78642C8.92492 1.48042 8.92492 0.982323 9.23262 0.674623C9.53862 0.366923 10.0367 0.366923 10.3444 0.674623L16.5681 6.89832C16.5732 6.90342 16.5766 6.91022 16.5817 6.91532C16.733 7.05812 16.8299 7.26042 16.8299 7.48482C16.8299 7.54942 16.8197 7.61062 16.8061 7.67182C16.7738 7.81122 16.7058 7.94382 16.597 8.05262L10.3257 14.3239C10.0163 14.6333 9.51482 14.6333 9.20542 14.3239C8.89602 14.0145 8.89602 13.513 9.20542 13.2036L14.1388 8.27022H0.955322C0.521822 8.27022 0.169922 7.91832 0.169922 7.48482C0.169922 7.05132 0.521822 6.69942 0.955322 6.69942Z" fill="white"/>
</svg>
