<svg width="17" height="15" viewBox="0 0 17 15" fill="none" xmlns="http://www.w3.org/2000/svg">
<path d="M16.0447 6.69942H2.85438L7.76738 1.78642C8.07508 1.48042 8.07508 0.982323 7.76738 0.674623C7.46138 0.366923 6.96328 0.366923 6.65558 0.674623L0.431879 6.89832C0.426779 6.90342 0.423378 6.91022 0.418278 6.91532C0.266979 7.05812 0.170078 7.26042 0.170078 7.48482C0.170078 7.54942 0.180279 7.61062 0.19388 7.67182C0.226179 7.81122 0.29418 7.94382 0.402979 8.05262L6.67428 14.3239C6.98368 14.6333 7.48518 14.6333 7.79458 14.3239C8.10398 14.0145 8.10398 13.513 7.79458 13.2036L2.86118 8.27022H16.0447C16.4782 8.27022 16.8301 7.91832 16.8301 7.48482C16.8301 7.05132 16.4782 6.69942 16.0447 6.69942Z" fill="white"/>
</svg>
