<svg width="120" height="120" viewBox="0 0 120 120" fill="none" xmlns="http://www.w3.org/2000/svg">
<path d="M7.5 67.5C7.5 96.495 31.005 120 60 120C88.995 120 112.5 96.495 112.5 67.5C112.5 38.505 88.995 15 60 15C31.005 15 7.5 38.505 7.5 67.5ZM60 22.5C84.855 22.5 105 42.645 105 67.5C105 92.355 84.855 112.5 60 112.5C35.145 112.5 15 92.355 15 67.5C15 42.645 35.145 22.5 60 22.5Z" fill="#7D92A4"/>
<path d="M75 0H45V7.5H75V0Z" fill="#2A8960"/>
<path d="M102.349 10.7977L97.0459 16.101L107.652 26.7075L112.956 21.4042L102.349 10.7977Z" fill="#2A8960"/>
<path d="M60 30V67.5H97.5C97.5 46.7925 80.7075 30 60 30Z" fill="#2A8960"/>
</svg>
